<svg id="Layer_1" data-name="Layer 1" xmlns="http://www.w3.org/2000/svg" viewBox="0 0 1332.53 1296.52"><defs><style>.cls-1{fill:#ed1c24;}.cls-2{fill:none;stroke:#ed1c24;stroke-miterlimit:10;stroke-width:60px;}</style></defs><title>logoArtboard 4</title><path d="M392.37,590.92H289.25V300h104q43.89,0,75.57,17.4a118.77,118.77,0,0,1,48.79,49.93q17.12,32.53,17.12,77.84t-17.12,78.13a118.66,118.66,0,0,1-49,50.14Q436.69,590.92,392.37,590.92Zm-41.62-52.7h39.06q27.27,0,46-9.73t28.13-30.26q9.44-20.52,9.45-53.05,0-32.24-9.45-52.7t-28.05-30.11q-18.61-9.66-45.88-9.66h-39.2Z"/><path d="M744.49,590.92,661.25,300h67.19l48.15,202.13H779L832.13,300h57.53l53,202.56h2.56L993.36,300h67.19L977.3,590.92H917.36L862,400.73h-2.27l-55.26,190.2Z"/><path d="M337.9,996.34H272L372.42,705.43h79.26L552,996.34H486.05L413.18,771.91h-2.27ZM333.78,882H489.46v48H333.78Z"/><polygon class="cls-1" points="875.13 996.5 780.76 705.26 840.74 705.36 941.04 996.5 875.13 996.5"/><rect class="cls-2" x="190.67" y="172.66" width="951.2" height="951.2"/></svg>