<svg id="Layer_1" data-name="Layer 1" xmlns="http://www.w3.org/2000/svg" viewBox="0 0 2213 760"><defs><style>.cls-1{fill:none;stroke:#ed1c24;stroke-miterlimit:10;stroke-width:60px;}.cls-2{fill:#ed1c24;}</style></defs><title>logoArtboard 3</title><path d="M853.48,608.86H697.3V168.3H854.77q66.47,0,114.44,26.35t73.89,75.61Q1069,319.53,1069,388.15q0,68.84-25.92,118.31T968.89,582.4Q920.59,608.86,853.48,608.86Zm-63-79.81H849.6q41.3,0,69.59-14.74t42.59-45.82q14.3-31.08,14.3-80.35,0-48.83-14.3-79.81t-42.49-45.6q-28.18-14.63-69.48-14.63H790.45Z"/><path d="M1214.48,608.86,1088.42,168.3h101.75l72.92,306.11h3.66l80.45-306.11h87.12l80.24,306.76h3.87l72.93-306.76h101.75L1567.05,608.86h-90.78l-83.9-288h-3.44l-83.68,288Z"/><path d="M1786.19,608.86h-99.81L1838.46,168.3h120l151.87,440.56h-99.81L1900.2,269h-3.44Zm-6.24-173.17h235.77V508.4H1779.95Z"/><rect class="cls-1" x="122.63" y="160.39" width="439.22" height="439.22"/><polygon class="cls-2" points="357.02 532.04 258.49 227.98 321.11 228.07 425.83 532.04 357.02 532.04"/></svg>