<svg id="Layer_1" data-name="Layer 1" xmlns="http://www.w3.org/2000/svg" viewBox="0 0 3852.5 576.5"><defs><style>.cls-1{fill:#fff;stroke:#ed1c24;stroke-miterlimit:10;stroke-width:45px;}</style></defs><title>white_logoArtboard 8</title><polygon class="cls-1" points="451.3 388.25 451.3 188.25 278.1 88.25 104.89 188.25 104.89 388.25 278.1 488.25 451.3 388.25"/><path d="M635.57,415.59H545.34V161h91q38.41,0,66.12,15.23A103.92,103.92,0,0,1,745.13,220q15,28.46,15,68.11t-15,68.36a103.82,103.82,0,0,1-42.88,43.87Q674.35,415.59,635.57,415.59Zm-36.42-46.11h34.18q23.86,0,40.21-8.51t24.61-26.47q8.26-18,8.27-46.42,0-28.21-8.27-46.11T673.6,215.61q-16.28-8.45-40.15-8.45h-34.3Z"/><path d="M825.61,200.07a28.63,28.63,0,0,1-20.26-7.89,25,25,0,0,1-8.45-19q0-10.94,8.45-18.83a29.87,29.87,0,0,1,40.46,0,25.47,25.47,0,0,1,0,37.78A28.42,28.42,0,0,1,825.61,200.07ZM798.88,415.59V224.68h52.95V415.59Z"/><path d="M980.09,489.92q-25.73,0-44.06-7t-29.15-18.77a56.87,56.87,0,0,1-14-26.23l49-6.59a30.45,30.45,0,0,0,7.08,9.88,36.82,36.82,0,0,0,12.86,7.64q8,3,19.58,3,17.27,0,28.52-8.2t11.25-27V381.78h-2.24a50.32,50.32,0,0,1-10.44,15,52.64,52.64,0,0,1-17.9,11.56q-10.94,4.47-26.1,4.47a77.64,77.64,0,0,1-39.09-10q-17.59-10-28-30.7T887,319.76q0-32.44,10.56-54.19T925.72,233a72.27,72.27,0,0,1,38.59-10.81q16,0,26.85,5.41A53.15,53.15,0,0,1,1008.62,241a74.22,74.22,0,0,1,10.25,15.72h2V224.68h52.57V417.45q0,23.86-11.93,40t-33,24.3Q1007.44,489.92,980.09,489.92Zm1.12-116.83q12.8,0,21.69-6.4t13.67-18.39q4.78-12,4.79-28.77t-4.72-29.15q-4.72-12.37-13.67-19.2t-21.75-6.84q-13.05,0-22,7T945.67,290.8q-4.6,12.43-4.6,28.71,0,16.53,4.66,28.52t13.55,18.52Q968.16,373.08,981.21,373.08Z"/><path d="M1142.41,200.07a28.63,28.63,0,0,1-20.26-7.89,25,25,0,0,1-8.45-19q0-10.94,8.45-18.83a29.87,29.87,0,0,1,40.46,0,25.47,25.47,0,0,1,0,37.78A28.42,28.42,0,0,1,1142.41,200.07Zm-26.72,215.52V224.68h52.95V415.59Z"/><path d="M1312.44,224.68v39.77h-115V224.68Zm-88.87-45.74h52.95v178q0,7.33,2.24,11.37A12.23,12.23,0,0,0,1285,374a25.12,25.12,0,0,0,9.38,1.62,41.2,41.2,0,0,0,7.46-.68l5.72-1.06,8.33,39.4q-4,1.24-11.19,2.92a93.48,93.48,0,0,1-17.52,2.05q-19.14.75-33.5-5.1A46.79,46.79,0,0,1,1231.4,395q-8-12.3-7.83-31.07Z"/><path d="M1401.3,419.19q-18.27,0-32.56-6.4a51.46,51.46,0,0,1-22.56-19q-8.27-12.61-8.26-31.51,0-15.91,5.84-26.72a47.31,47.31,0,0,1,15.91-17.4,77.1,77.1,0,0,1,22.93-9.94,172.79,172.79,0,0,1,27-4.72q16.65-1.74,26.85-3.29t14.79-4.66q4.6-3.11,4.6-9.2v-.75q0-11.81-7.4-18.27t-20.94-6.46q-14.29,0-22.75,6.28a29.45,29.45,0,0,0-11.19,15.72l-49-4a67,67,0,0,1,14.67-30.14q10.94-12.74,28.28-19.64t40.21-6.9a122.89,122.89,0,0,1,30.51,3.73,80.46,80.46,0,0,1,26,11.56,56.57,56.57,0,0,1,18,20.07q6.59,12.24,6.59,29.27V415.59H1458.6V389.12h-1.49a53.1,53.1,0,0,1-12.3,15.72,55.48,55.48,0,0,1-18.52,10.56A75.41,75.41,0,0,1,1401.3,419.19Zm15.16-36.54A44,44,0,0,0,1437.1,378a36.09,36.09,0,0,0,14-12.62,32.69,32.69,0,0,0,5.1-18V327.1a27.06,27.06,0,0,1-6.77,2.92q-4.29,1.31-9.63,2.36t-10.69,1.86q-5.35.81-9.69,1.43a65.58,65.58,0,0,0-16.28,4.35,26.26,26.26,0,0,0-10.81,8,19.94,19.94,0,0,0-3.85,12.49q0,10.81,7.89,16.47T1416.47,382.65Z"/><path d="M1602.9,161V415.59h-52.95V161Z"/><path d="M1784.6,415.59,1711.77,161h58.79l42.13,176.86h2.11L1861.29,161h50.34L1958,338.28h2.24L2002.36,161h58.79l-72.83,254.55h-52.45l-48.47-166.42h-2l-48.35,166.42Z"/><path d="M2154.49,419.32q-29,0-50-12.37A83.57,83.57,0,0,1,2072,372.4q-11.44-22.19-11.44-51.52,0-29.58,11.44-51.77a83.58,83.58,0,0,1,32.5-34.55q21.07-12.37,50-12.37t50,12.37a83.6,83.6,0,0,1,32.5,34.55q11.43,22.19,11.43,51.77,0,29.33-11.43,51.52a83.59,83.59,0,0,1-32.5,34.55Q2183.45,419.32,2154.49,419.32Zm.25-41q13.17,0,22-7.52t13.36-20.57a99.51,99.51,0,0,0,0-59.41q-4.54-13.05-13.36-20.63t-22-7.58q-13.3,0-22.31,7.58t-13.55,20.63a99.53,99.53,0,0,0,0,59.41q4.54,13.05,13.55,20.57T2154.74,378.3Z"/><path d="M2336,305.22V415.59H2283V224.68h50.46v33.68h2.24A53.59,53.59,0,0,1,2357,232q14.91-9.76,36.17-9.76,19.88,0,34.68,8.7a59.24,59.24,0,0,1,23,24.8q8.2,16.1,8.2,38.34V415.59H2406V303.48q.12-17.52-8.95-27.41t-25-9.88a37.63,37.63,0,0,0-18.83,4.6,31.63,31.63,0,0,0-12.68,13.36Q2336.07,292.92,2336,305.22Z"/><path d="M2571,418.7a71.46,71.46,0,0,1-39.34-11.25q-17.59-11.25-27.84-33.19t-10.25-53.88q0-32.81,10.56-54.63t28.15-32.69a72,72,0,0,1,38.59-10.88q16,0,26.79,5.41A53.34,53.34,0,0,1,2615,241a70.29,70.29,0,0,1,10.13,15.72h1.62V161h52.82V415.59h-52.2V385h-2.24a68,68,0,0,1-10.5,15.72,52.92,52.92,0,0,1-17.52,12.86Q2586.39,418.7,2571,418.7Zm16.78-42.13q12.8,0,21.69-7t13.67-19.7q4.78-12.68,4.79-29.71t-4.72-29.58q-4.72-12.55-13.67-19.39t-21.75-6.84q-13.05,0-22,7.08t-13.55,19.64q-4.6,12.56-4.6,29.08t4.66,29.39q4.66,12.74,13.55,19.89T2587.76,376.56Z"/><path d="M2810,419.32q-29.46,0-50.65-12a81.11,81.11,0,0,1-32.63-34.06q-11.44-22.06-11.44-52.26,0-29.46,11.44-51.7A84.39,84.39,0,0,1,2759,234.62q20.82-12.43,48.91-12.43a101.06,101.06,0,0,1,35.24,6,79.47,79.47,0,0,1,28.59,18.08q12.24,12.06,19.08,30.26t6.84,42.57v14.54H2736.4V300.87h111.36a40.57,40.57,0,0,0-5-20.26,36.18,36.18,0,0,0-13.73-13.86,40.07,40.07,0,0,0-20.32-5,40.77,40.77,0,0,0-21.32,5.53A39.68,39.68,0,0,0,2772.95,282a42.12,42.12,0,0,0-5.34,20.57v31.2q0,14.17,5.28,24.49a37.81,37.81,0,0,0,15,15.91q9.69,5.59,23,5.59a50,50,0,0,0,16.16-2.49,33.52,33.52,0,0,0,12.55-7.46,32.42,32.42,0,0,0,8-12.18l49,3.23a66.76,66.76,0,0,1-15.23,30.76q-11.5,13.11-29.58,20.38T2810,419.32Z"/><path d="M2932.16,415.59V224.68h51.33V258h2q5.22-17.77,17.53-26.91a46.28,46.28,0,0,1,28.34-9.14,80.48,80.48,0,0,1,8.58.5,60.79,60.79,0,0,1,8.08,1.37v47a69.24,69.24,0,0,0-10.32-2,93,93,0,0,0-12.06-.87,42.42,42.42,0,0,0-20.82,5,37.4,37.4,0,0,0-14.42,14,39.81,39.81,0,0,0-5.28,20.63v108Z"/><path d="M3128.16,161V415.59h-52.95V161Z"/><path d="M3224.85,419.19q-18.27,0-32.56-6.4a51.46,51.46,0,0,1-22.56-19q-8.27-12.61-8.26-31.51,0-15.91,5.84-26.72a47.31,47.31,0,0,1,15.91-17.4,77.1,77.1,0,0,1,22.93-9.94,172.79,172.79,0,0,1,27-4.72q16.65-1.74,26.85-3.29t14.79-4.66q4.6-3.11,4.6-9.2v-.75q0-11.81-7.4-18.27t-20.94-6.46q-14.29,0-22.75,6.28a29.45,29.45,0,0,0-11.19,15.72l-49-4a67,67,0,0,1,14.67-30.14q10.94-12.74,28.28-19.64t40.21-6.9a122.89,122.89,0,0,1,30.51,3.73,80.46,80.46,0,0,1,26,11.56,56.57,56.57,0,0,1,18,20.07q6.59,12.24,6.59,29.27V415.59h-50.21V389.12h-1.49a53.1,53.1,0,0,1-12.3,15.72,55.48,55.48,0,0,1-18.52,10.56A75.41,75.41,0,0,1,3224.85,419.19ZM3240,382.65a44,44,0,0,0,20.63-4.66,36.09,36.09,0,0,0,14-12.62,32.69,32.69,0,0,0,5.1-18V327.1A27.06,27.06,0,0,1,3273,330q-4.29,1.31-9.63,2.36t-10.69,1.86q-5.35.81-9.69,1.43a65.58,65.58,0,0,0-16.28,4.35,26.26,26.26,0,0,0-10.81,8,19.94,19.94,0,0,0-3.85,12.49q0,10.81,7.89,16.47T3240,382.65Z"/><path d="M3426.45,305.22V415.59H3373.5V224.68H3424v33.68h2.24A53.59,53.59,0,0,1,3447.45,232q14.91-9.76,36.17-9.76,19.88,0,34.68,8.7a59.24,59.24,0,0,1,23,24.8q8.2,16.1,8.2,38.34V415.59h-52.95V303.48q.12-17.52-8.95-27.41t-25-9.88a37.63,37.63,0,0,0-18.83,4.6,31.63,31.63,0,0,0-12.68,13.36Q3426.57,292.92,3426.45,305.22Z"/><path d="M3661.48,418.7a71.46,71.46,0,0,1-39.34-11.25q-17.59-11.25-27.84-33.19T3584,320.38q0-32.81,10.56-54.63t28.15-32.69a72,72,0,0,1,38.59-10.88q16,0,26.79,5.41a53.34,53.34,0,0,1,17.4,13.42,70.29,70.29,0,0,1,10.13,15.72h1.62V161h52.82V415.59h-52.2V385h-2.24a68,68,0,0,1-10.5,15.72,52.92,52.92,0,0,1-17.52,12.86Q3676.89,418.7,3661.48,418.7Zm16.78-42.13q12.8,0,21.69-7t13.67-19.7q4.78-12.68,4.79-29.71t-4.72-29.58Q3709,278,3700,271.17t-21.75-6.84q-13.05,0-22,7.08t-13.55,19.64q-4.6,12.56-4.6,29.08t4.66,29.39q4.66,12.74,13.55,19.89T3678.26,376.56Z"/></svg>