<?xml version="1.0" encoding="utf-8"?>
<!-- Generator: Adobe Illustrator 21.0.2, SVG Export Plug-In . SVG Version: 6.00 Build 0)  -->
<svg version="1.1" id="Layer_1" xmlns="http://www.w3.org/2000/svg" xmlns:xlink="http://www.w3.org/1999/xlink" x="0px" y="0px"
	 viewBox="0 0 500 500" style="enable-background:new 0 0 500 500;" xml:space="preserve">
<style type="text/css">
	.st0{fill:#D4ECFF;}
	.st1{fill:#FF2C9C;}
	.st2{fill:#5793CE;}
	.st3{fill:#396CAA;}
	.st4{fill:url(#SVGID_1_);}
	.st5{fill:#EAEAEA;}
	.st6{fill:#173D7A;}
	.st7{fill:#FDD762;}
	.st8{fill:#FFC2B0;}
	.st9{fill:#FFFFFF;}
	.st10{fill:#EA9C92;}
	.st11{fill:#D3008D;}
	.st12{fill:#274F89;}
	.st13{fill:#E8A200;}
	.st14{fill:#F9BF30;}
	.st15{fill:#EDEDED;}
	.st16{fill:#E9F6FF;}
	.st17{fill:#AEDEED;}
	.st18{opacity:0.4;fill:#FFFFFF;}
	.st19{fill:#B2D3EA;}
	.st20{fill:#983BE9;}
	.st21{fill:#D8892B;}
	.st22{fill:#721BD5;}
	.st23{fill:#6614CF;}
	.st24{fill:#8A2AE3;}
	.st25{fill:#B45EF4;}
	.st26{fill:#D29FFF;}
</style>
<path class="st0" d="M369.2,414.9l-0.7-1.2l20.6-12.1c2.5-1.5,5.7-1.5,8.2,0l17,10.2l-0.7,1.2l-17-10.2c-2.1-1.3-4.7-1.3-6.8,0
	L369.2,414.9z"/>
<path class="st0" d="M430.6,411.5l-0.7-1.2l53.5-31.6c0.5-0.3,0.8-0.8,0.8-1.4c0-0.6-0.3-1.1-0.8-1.4L465.7,365l0.7-1.2l17.8,10.9
	c0.9,0.6,1.5,1.5,1.5,2.6c0,1.1-0.6,2.1-1.5,2.6L430.6,411.5z"/>
<path class="st0" d="M372.3,368l-0.7-1.2l52.1-30c0.5-0.3,0.9-0.9,0.9-1.5c0-0.6-0.3-1.2-0.9-1.5l-27.6-15.9
	c-3.8-2.2-6.1-6.2-6.1-10.6v-90.8c0-3.8,1.9-7.3,5-9.4l4.1-2.8l0.8,1.1l-4.1,2.8c-2.7,1.9-4.4,4.9-4.4,8.2v90.8
	c0,3.9,2.1,7.5,5.4,9.4l27.6,15.9c1,0.6,1.6,1.6,1.6,2.7c0,1.1-0.6,2.1-1.6,2.7L372.3,368z"/>
<path class="st1" d="M368.9,396.7c-0.5,0-0.9-0.2-1.2-0.7c-0.4-0.7-0.2-1.5,0.5-1.9l20.6-12.1c2.8-1.6,6.2-1.6,9,0l17,10.2
	c0.7,0.4,0.9,1.2,0.5,1.9c-0.4,0.7-1.2,0.9-1.9,0.5l-17-10.2c-1.9-1.1-4.2-1.1-6.1,0l-20.6,12.1
	C369.4,396.6,369.1,396.7,368.9,396.7z"/>
<path class="st0" d="M339.6,461.3l-114.8-66.3c-4-2.3-3.5-6.3,1.1-9l0,0c4.6-2.7,11.6-2.9,15.6-0.6l114.8,66.3c4,2.3,3.5,6.3-1.1,9
	l0,0C350.6,463.3,343.6,463.6,339.6,461.3z"/>
<g>
	<g>
		<g>
			<path class="st0" d="M449.4,286c-0.9-0.5-1.8-0.9-2.7-1.3l0,0l-5.3-2.3l0.4,0.9c-4-0.8-8.3-0.8-12.4-0.1l0.2-1l-6.2,2.7l0,0
				c-0.8,0.3-1.6,0.7-2.3,1.1c-7.8,4.5-7.8,11.8,0,16.3c7.8,4.5,20.4,4.5,28.2,0C457.2,297.8,457.2,290.5,449.4,286z"/>
			<path class="st2" d="M441.9,290.2c-3.6,2.1-9.6,2.1-13.2,0s-3.6-5.5,0-7.6c3.6-2.1,9.6-2.1,13.2,0
				C445.6,284.7,445.6,288.1,441.9,290.2z"/>
		</g>
		<g>
			<path class="st2" d="M435.3,287.9L435.3,287.9c-1.8,0-3.2-1.4-3.2-3.2v-40.1h6.3v40.1C438.5,286.5,437.1,287.9,435.3,287.9z"/>
			<path class="st2" d="M437.6,246c-1.3,0.7-3.3,0.7-4.6,0c-1.3-0.7-1.3-1.9,0-2.6c1.3-0.7,3.3-0.7,4.6,0
				C438.8,244.1,438.8,245.3,437.6,246z"/>
		</g>
		<path class="st0" d="M435.3,246L435.3,246c-1.4,0-2.6-1.2-2.6-2.6v-37.7h5.1v37.7C437.9,244.8,436.7,246,435.3,246z"/>
		<g>
			<path class="st3" d="M472.3,225.4l0-1.5l2.1-0.3l2.3-1.7c0.4-0.3,1.1-0.3,1.5-0.1l1.7,1l1.7-0.2v1.5l0,0c0,0.2-0.1,0.3-0.4,0.5
				l-5.4,2.4c-0.4,0.2-1,0.2-1.4-0.1l-1.8-1C472.4,225.8,472.3,225.6,472.3,225.4L472.3,225.4z"/>
			<path class="st2" d="M472.5,223.6l4.2-3.1c0.4-0.3,1.1-0.3,1.5-0.1l3.1,1.8c0.4,0.3,0.4,0.7-0.1,0.9l-5.4,2.4
				c-0.4,0.2-1,0.2-1.4-0.1l-1.8-1C472.2,224.2,472.2,223.8,472.5,223.6z"/>
			<g>
				<path class="st0" d="M465.5,230.7c0.6,0,1.2-0.1,1.7-0.4l6.5-3.8c0.4-0.2,0.5-0.7,0.3-1c-0.2-0.4-0.7-0.5-1-0.3l-6.5,3.8
					c-0.5,0.3-1.4,0.3-1.9,0l-10.8-6.3c-0.4-0.2-0.8-0.1-1,0.3c-0.2,0.4-0.1,0.8,0.3,1l10.8,6.3
					C464.3,230.5,464.9,230.7,465.5,230.7z"/>
			</g>
		</g>
		<g>
			<radialGradient id="SVGID_1_" cx="333.4821" cy="209.0863" r="64.6501" gradientUnits="userSpaceOnUse">
				<stop  offset="0" style="stop-color:#01C8EF"/>
				<stop  offset="8.940536e-02" style="stop-color:#03BEE9"/>
				<stop  offset="0.2388" style="stop-color:#08A5D7"/>
				<stop  offset="0.4288" style="stop-color:#107BBB"/>
				<stop  offset="0.4457" style="stop-color:#1177B8"/>
				<stop  offset="1" style="stop-color:#112564"/>
			</radialGradient>
			<polygon class="st4" points="402.7,216.9 413.2,210.8 407.4,208.1 402.3,211.7 			"/>
			<path class="st2" d="M470,207.8c-0.6-0.3-1.2-0.7-1.8-1.1l-22.3-16.4c-4-3-8.2-3.7-11.4-2.1c-0.1,0-0.2,0.1-0.2,0.1l0,0
				l-30.8,17.9l2.8,0.9l10.8,4.9l14.7,10.4l11.6,6.2l0.5,0.1c2.7-2.3,5.7-4.2,7.4-7.5c2.9-5,10.9-6.5,15.6-10.5
				c0.5,0.3,0.9,0.6,1.4,0.8C469.2,210.6,469.4,209.3,470,207.8z"/>
			<path class="st3" d="M479.8,200.5c-0.5,0-0.9,0.2-1.3,0.4l0,0l-30.2,17.5l1.1,4.5l1.1-0.5c-1.7,2.7-4.4,4.5-6.8,6.5l3.4,0.7
				l29.5-17.2c0.1-0.1,0.3-0.1,0.4-0.2c0.4-0.2,0.8-0.5,1.1-0.7l0.1,0l0,0c2.2-1.7,3.5-4.8,3.5-8.5v-0.4
				C481.9,201.4,480.9,200.5,479.8,200.5z"/>
			<g>
				<path class="st5" d="M438.5,187.5c1.9,0.1,3.9,0.7,5.9,1.9C442.4,188.2,440.4,187.5,438.5,187.5z"/>
				<path class="st2" d="M452.2,219.8v-0.4c0-1.1-0.9-2.1-2.1-2.1c-1.1,0-2.1,0.9-2.1,2.1v0.4c0,2.8-0.9,4.8-2.4,5.6
					c-1.7,0.9-4.4,0.2-7.1-1.7l-22.3-16.4c-3.4-2.5-7-3.4-9.9-2.6l18.4-10.7l-21.4,12.4l2.8,0.9l10.8,4.9l14.7,10.4l11.6,6.2
					l0.5,0.1c2.7-2.3,5.7-4.2,7.4-7.5c0.3-0.5,0.6-1,1-1.4C452.2,219.8,452.2,219.8,452.2,219.8z"/>
			</g>
			<g>
				<path class="st0" d="M443.3,230.6c-2.4,0-5.1-1-7.8-2.9l-22.3-16.4c-2.7-2-5.3-2.6-7.1-1.7c-1.5,0.8-2.4,2.8-2.4,5.6
					c0,1.1-0.9,2.1-2.1,2.1c-1.1,0-2.1-0.9-2.1-2.1c0-4.4,1.7-7.8,4.7-9.3c3.2-1.6,7.4-0.9,11.4,2.1l22.3,16.4
					c2.7,2,5.3,2.6,7.1,1.7c1.5-0.8,2.4-2.8,2.4-5.6v-0.4c0-1.1,0.9-2.1,2.1-2.1c1.1,0,2.1,0.9,2.1,2.1v0.4c0,4.4-1.7,7.8-4.7,9.3
					C445.8,230.3,444.6,230.6,443.3,230.6z"/>
			</g>
		</g>
	</g>
	<g>
		<g>
			<path class="st6" d="M425.7,267.1c0,0-4.2-2.1-6.8,1c-2.6,3.2-6.3,10.6-6.4,15.6s4,4.7,6.4,3.5c2.4-1.2,9.6-11.5,10-13.5
				c0.4-2-0.5-4.8-1.2-5.3C427.1,267.9,425.7,267.1,425.7,267.1z"/>
			<path class="st2" d="M426.7,266.1l0.2,4.4c0,0.9-0.4,1.8-1.2,2.3c-0.7,0.4-1.8,0.7-3.2,0.5c-3.2-0.5-3.4-1.4-3.7-5.8
				C418.5,263.1,426.7,266.1,426.7,266.1z"/>
			<g>
				<path class="st6" d="M410.4,258.8c0,0-4.2-2.1-6.8,1c-2.6,3.2-6.3,10.6-6.4,15.6c-0.1,5,4,4.7,6.4,3.5c2.4-1.2,9.6-11.5,10-13.5
					c0.4-2-0.5-4.8-1.2-5.3C411.7,259.6,410.4,258.8,410.4,258.8z"/>
				<path class="st2" d="M411.3,257.7l0.2,4.4c0,0.9-0.4,1.8-1.2,2.3c-0.7,0.4-1.8,0.7-3.2,0.5c-3.2-0.5-3.4-1.4-3.7-5.8
					C403.1,254.7,411.3,257.7,411.3,257.7z"/>
				<path class="st7" d="M448.8,177.8c-1.2-20.2-21.9,3-21.9,3l-14.2,13.9l-12.7,14c-2.5,2.7-3.6,6.4-3.2,10.1l5.2,39.3
					c0.3,1.9,1.9,3.4,3.9,3.4c0.6,0,1.2-0.1,1.9-0.2c4.6-0.7,4.3-5.1,4.3-5.1l-0.9-36.7l26.8-16.1C437.8,203.2,450,198,448.8,177.8z
					"/>
			</g>
			<path class="st7" d="M464.2,185.5c-1.2-20.2-21.9,3-21.9,3l-14.2,13.9l-12.7,14c-2.5,2.7-3.6,6.4-3.2,10.1l5.2,39.3
				c0.3,1.9,1.9,3.4,3.9,3.4c0.6,0,1.2-0.1,1.9-0.2c4.6-0.7,4.3-5.1,4.3-5.1l-0.9-36.7l26.8-16.1
				C453.2,210.9,465.4,205.7,464.2,185.5z"/>
			<path class="st1" d="M451.9,120.5c15.7,6.5,15.4,15.8,15.4,15.8s-3.1,34-2,56.7c0.4,9.5-50.4,10.2-42.8-15.1
				c8.9-29.8,5.6-54,9.8-57.6C436.4,116.6,447.9,118.8,451.9,120.5z"/>
			
				<ellipse transform="matrix(0.2494 -0.9684 0.9684 0.2494 214.3843 530.0605)" class="st8" cx="449.1" cy="126.7" rx="6" ry="8.1"/>
			<path class="st9" d="M450.3,133.6c-0.9,0-1.9-0.1-2.9-0.4c-2.2-0.6-4.2-1.8-5.5-3.4c-1.4-1.7-1.8-3.5-1.4-5.3
				c0.9-3.6,5.5-5.5,10.2-4.3c2.2,0.6,4.2,1.8,5.5,3.4c1.4,1.7,1.8,3.5,1.4,5.3c-0.5,1.8-1.8,3.2-3.8,4
				C452.8,133.4,451.6,133.6,450.3,133.6z M447.9,121.4c-2.9,0-5.3,1.4-5.9,3.5c-0.3,1.3,0.1,2.7,1.1,4c1.1,1.3,2.8,2.4,4.7,2.9
				c1.9,0.5,3.9,0.4,5.5-0.2c1.5-0.6,2.6-1.7,2.9-3v0c0.3-1.3-0.1-2.7-1.1-4c-1.1-1.3-2.8-2.4-4.7-2.9
				C449.6,121.5,448.8,121.4,447.9,121.4z"/>
			<path class="st8" d="M445.6,119.8c0,0,0.1,0.6-0.1,5.6c-0.1,1.6,5.4,3,6.8,1.6c1.4-1.4,0.8-2.9,1.2-8.2
				C453.8,113.5,445.6,119.8,445.6,119.8z"/>
			<path class="st10" d="M453.5,118.8c0,0-1.3,4.9-8,6.8l0.1-4.5L453.5,118.8z"/>
			
				<ellipse transform="matrix(0.9682 -0.2503 0.2503 0.9682 -13.1666 115.1255)" class="st8" cx="446" cy="109.3" rx="12.1" ry="12.1"/>
			<path class="st10" d="M448.8,109.8c0,0-6.6,2.8-11.2,2.9c-4.6,0-3.6-3.8-3.6-3.8l13.7-2L448.8,109.8z"/>
			<path class="st7" d="M436.2,110.5c0,0,5.8-2.5,10.9-1.4c1.2,0.2,2.3,0.9,3.1,1.8c0.3,0.3,0.6,0.6,0.9,0.7
				c0.9,0.2,2.4-3.5,4.1-3.6c1.7-0.1,2.9,1.2,1.5,3.5c-1.4,2.3-0.9,4.9-0.3,5.2c0.7,0.4,7.7-5,1.5-17.2c-6.2-12.2-21.9-5.6-24.3-3.2
				c0,0-2.6,2.2-4.7,0.2C428.9,96.5,426.5,114.1,436.2,110.5z"/>
			<path class="st8" d="M458.5,161.1v9.2c0,1.1-0.4,2.1-1.2,2.8l-18.9,17.2l2.1,3.3l24.9-18.1c1.2-0.8,1.9-2.1,2.1-3.6l1.7-16
				L458.5,161.1z"/>
			<path class="st1" d="M466,131.7c0,0,5.7,8.6,7.9,31.3c0,0-9.8,3.2-15.3,1.4C453,162.5,466,131.7,466,131.7z"/>
			<path class="st11" d="M457.5,142.6c0,0-2.2,12-2.4,17.6c0,1.5,0.9,2.9,2.4,3.5l0,0V142.6z"/>
		</g>
		<g>
			<path class="st6" d="M452.6,202.2l-4.2-0.6l-26.9-15.5c-0.9-0.5-2.4-0.4-3.4,0.1l-19.1,11l-2.5-0.3v2.5l0,0
				c0,0.3,0.2,0.6,0.6,0.9l30.5,17.6c0.9,0.5,2.4,0.4,3.4-0.1l20.8-12c0.6-0.3,0.8-0.7,0.8-1.1l0,0V202.2z"/>
			<path class="st3" d="M432.3,192.4l-1.9-1.1h-21l-10.4,6l-2.5-0.3v2.5l0,0c0,0.3,0.2,0.6,0.6,0.9l30.5,17.6
				c0.5,0.3,1.1,0.4,1.7,0.3L432.3,192.4z"/>
			<path class="st2" d="M397.7,197.1l-1.1-0.1v2.5l0,0c0,0.3,0.2,0.6,0.6,0.9l0.5,0.3V197.1z"/>
			<path class="st12" d="M427.9,218.1c0.8,0.3,2,0.2,2.9-0.2v-4.3h-2.9V218.1z"/>
			<path class="st9" d="M427.6,215.4l-30.5-17.6c-0.9-0.5-0.8-1.4,0.2-1.9l20.8-12c1-0.6,2.5-0.6,3.4-0.1l30.5,17.6
				c0.9,0.5,0.8,1.4-0.2,1.9l-20.8,12C430,215.8,428.5,215.9,427.6,215.4z"/>
			<path class="st0" d="M427.1,212.7l-25.4-14.6c-0.7-0.4-0.6-1.1,0.2-1.6l11.1-6.3c0.8-0.5,2.1-0.5,2.8-0.1l25.4,14.6
				c0.7,0.4,0.6,1.1-0.2,1.6l-11.1,6.3C429.1,213.1,427.8,213.1,427.1,212.7z"/>
		</g>
		<path class="st8" d="M419.3,183.3l-0.3,2.1c-0.3,1.8-0.2,3.6,0.1,5.4l0.4,1.9c0.2,1,1,1.9,2.1,2l0,0c0.8,0.1,1.6-0.4,1.7-1.3
			l0.5-4.5c0,0,1.2,1.5,1.7,1.5c0.6,0-0.6-4.5-1.9-7.1C422.3,180.8,419.3,183.3,419.3,183.3z"/>
		<path class="st8" d="M429.6,149.9l-3.3,6.5c-0.8,1.5-1.2,3.2-1.3,4.9l-1.4,22.1l-4.3-0.1l-2-24.9c-0.1-0.8,0-1.5,0.1-2.3l2.2-12.6
			L429.6,149.9z"/>
		<g>
			<path class="st6" d="M426.6,217.1l-2.6-3.3l-26.9-15.6c-0.9-0.5-1.6-1.8-1.6-3l0-22l-1.5-2l1.5-0.8l0,0c0.3-0.2,0.6-0.2,1.1,0.1
				L427,188c0.9,0.5,1.6,1.8,1.6,3l0,24c0,0.6-0.2,1.1-0.6,1.3l0,0L426.6,217.1z"/>
			<path class="st3" d="M408,204.5l-1.9-1.1l-10.5-18.2l0-12l-1.5-2l1.5-0.8l0,0c0.3-0.2,0.6-0.2,1.1,0.1L427,188
				c0.5,0.3,0.9,0.8,1.1,1.3L408,204.5z"/>
			<path class="st2" d="M394.7,172.1l-0.7-0.9l1.5-0.8l0,0c0.3-0.2,0.6-0.2,1.1,0.1l0.5,0.3L394.7,172.1z"/>
			<path class="st12" d="M427.3,188.2c0.7,0.6,1.2,1.6,1.3,2.6l-3,1.7l-1.4-2.5L427.3,188.2z"/>
			<path class="st2" d="M425.6,188.9l-30.5-17.6c-0.9-0.5-1.6,0-1.6,1.2l0,24c0,1.2,0.7,2.5,1.6,3l30.5,17.6c0.9,0.5,1.6,0,1.6-1.2
				l0-24C427.1,190.7,426.4,189.4,425.6,188.9z"/>
		</g>
		<path class="st8" d="M440.6,193.5l-0.5,1c-0.6,1.2-1.4,2.1-2.5,2.8l-3,1.9c-0.9,0.6-2.1,0.6-3.1,0.1c0,0-0.1,0-0.1-0.1
			c-1-0.6-1-2-0.3-2.8l3.2-3.3c0,0-1.8,1.4-2.3,0.8c-0.4-0.4,1.7-2.4,3.3-2.4c1.6-0.1,3.2-1.3,3.2-1.3L440.6,193.5z"/>
		<path class="st1" d="M432.5,120.2c0,0-11.6,12.6-16.3,24.2c0,0,4,7.1,13.7,9.9C439.6,157.1,432.5,120.2,432.5,120.2z"/>
		<path class="st11" d="M427.8,153.6l1.9-18.2l-4.4,17C426,152.8,426.9,153.2,427.8,153.6z"/>
		<path class="st9" d="M441.2,117.6l-3.1-0.9c0,0,1.5,2.3,3.7,2.9c2.2,0.6,2.5-1.2,2.5-1.2L441.2,117.6z"/>
	</g>
</g>
<path class="st1" d="M360.4,110.3L236.8,38.9c-4.1-2.3-7.8-2.4-10.5-0.6l0,0l-15.5,9l10.4,1.9c0,0.5-0.1,1.1-0.1,1.6v291.7
	c0,11.6,7,25,15.7,30l121.9,70.4c-1.1,3.5-3.5,10.8-3.5,10.8l15.2-8.8l0,0c3.5-1.8,5.8-6.4,5.8-12.9V140.3
	C376.1,128.7,369.1,115.3,360.4,110.3z"/>
<g>
	<polygon class="st0" points="476.7,360.7 458.1,349.9 439.5,360.7 458.1,371.4 	"/>
	<polygon class="st13" points="458.1,361.4 458.1,349.4 480.3,336.5 480.3,348.6 	"/>
	<polygon class="st14" points="458.1,349.4 435.9,336.5 435.9,348.6 458.1,361.4 	"/>
	<polygon class="st7" points="480.3,336.5 458.1,323.7 435.9,336.5 458.1,349.4 	"/>
</g>
<path class="st9" d="M403.3,197c0,1.9-1.3,2.7-3,1.7c-1.6-0.9-3-3.3-3-5.2c0-1.9,1.3-2.7,3-1.7C402,192.8,403.3,195.1,403.3,197z"/>
<path class="st1" d="M372,359.5c-0.5,0-0.9-0.2-1.2-0.7c-0.4-0.7-0.2-1.5,0.5-1.9l52.1-30c0.5-0.3,0.5-0.7,0.5-0.9s-0.1-0.6-0.5-0.9
	l-27.6-15.9c-4-2.3-6.5-6.6-6.5-11.2v-90.8c0-4,2-7.7,5.3-10l4.1-2.8c0.6-0.4,1.5-0.3,1.9,0.4c0.4,0.6,0.3,1.5-0.4,1.9l-4.1,2.8
	c-2.5,1.7-4.1,4.6-4.1,7.7V298c0,3.6,1.9,7,5.1,8.8l27.6,15.9c1.2,0.7,1.9,1.9,1.9,3.3c0,1.4-0.7,2.6-1.9,3.3l-52.1,30
	C372.5,359.4,372.2,359.5,372,359.5z"/>
<path class="st11" d="M221,342.4c0,11.6,7,25,15.7,30l121.9,70.4c-1.1,3.5-3.5,10.8-3.5,10.8l15.2-8.8l0,0c3.5-1.8,5.8-6.4,5.8-12.9
	V140.3c0-6-1.9-12.6-5-18.2L221,208.8V342.4z"/>
<path class="st1" d="M344.8,452.9l-123.7-71.4c-8.7-5-15.7-18.5-15.7-30V59.8c0-11.6,7-16.9,15.7-11.9l123.7,71.4
	c8.7,5,15.7,18.5,15.7,30V441C360.5,452.6,353.5,457.9,344.8,452.9z"/>
<polygon class="st11" points="225.9,139.3 216.3,132.7 212.6,120.4 208.8,128.4 205.4,126.8 205.4,133.5 206.5,135.2 205.4,140.1 
	205.4,144.8 212.6,143.8 220.8,154.4 218.6,142.2 "/>
<path class="st9" d="M342.5,443.3l-118.8-68.6c-6.5-3.7-11.7-13.7-11.7-22.3V64.8c0-8.6,5.2-12.6,11.7-8.8l118.8,68.6
	c6.5,3.7,11.7,13.7,11.7,22.3v287.5C354.2,443,349,447,342.5,443.3z"/>
<path class="st15" d="M293.9,355l-58.3-33.7V179.5l27.5,15.9c19.1,11,30.8,31.4,30.8,53.4V355z"/>
<g>
	<path class="st0" d="M214.7,165.8L214.7,165.8c-5.9-3.5-14.1-3.1-23.1,2.2c-17.9,10.3-32.4,35.5-32.4,56.2V239v0l0,0l0,0l0.6,0.4
		l58.4,34.4l0.9-17.8l0.7-6.9l3.1-10.8l0.4-1.6l6.6-13.4l5.2-6.5l4.2-5.1l10.3-8.1l0.9-0.7l5.1-2.2l6.8-1.8h5.3l6,1L214.7,165.8z"/>
	<path class="st0" d="M222.2,303.6l1.9-1.1v-67.9c-1,1.3-1.4,3.1-1.9,4.8V303.6z"/>
	<polygon class="st0" points="281.2,337.6 222.2,303.6 222.8,239.3 225,232.8 231.9,221.1 240,211.5 247.3,205.7 255.1,200.9 
		269.4,199.2 277,203.5 281.2,210 282.6,219.9 282.1,327.4 	"/>
	<path class="st2" d="M214.7,165.8c-4.9-2.9-11.5-3.1-18.8,0l60.2,34.7l6.5-1.7h5.3l6,1L214.7,165.8L214.7,165.8z"/>
	<g>
		<path class="st16" d="M197.4,165.2c-1.9,0.7-3.8,1.6-5.8,2.7c-1.3,0.8-2.6,1.6-3.9,2.5l60,34.6l2.1-1.6l0.9-0.7l5.1-2.2l2-0.5
			L197.4,165.2z"/>
		<path class="st9" d="M239.9,211.2l8.2-6.4l-60-34.6c-2.7,1.9-5.3,4.1-7.8,6.6L239.9,211.2z"/>
		<path class="st2" d="M283.1,336.5l-1.9,1.1V221.8c0-19.4-13.7-27.4-30.5-17.6c-16.8,9.7-30.5,33.5-30.5,52.9v15.6l-1.9,1.1v-15.6
			c0-20.7,14.5-45.8,32.4-56.2s32.4-1.9,32.4,18.7V336.5z"/>
	</g>
</g>
<polygon class="st17" points="177.1,213 173.8,226.6 175.5,248.6 171.2,246.1 165.8,234.2 170.6,219.1 "/>
<g>
	<path class="st18" d="M273.7,300c-0.4,0-0.7-0.1-1.1-0.3l-42.9-24.8c-1.3-0.7-2.3-2.6-2.3-4.2v-33.8c0-1,0.4-1.8,1-2.1
		c0.6-0.3,1.3-0.3,1.9,0.1l42.9,24.8c1.3,0.7,2.3,2.6,2.3,4.2v33.8c0,1-0.4,1.8-1,2.1C274.3,299.9,274,300,273.7,300z M229.3,235.9
		c-0.1,0-0.1,0-0.1,0c-0.1,0.1-0.3,0.4-0.3,0.9v33.8c0,1.2,0.7,2.6,1.6,3.1l42.9,24.8c0.1,0.1,0.4,0.2,0.6,0.1
		c0.1-0.1,0.3-0.4,0.3-0.9v-33.8c0-1.2-0.7-2.6-1.6-3.1L229.7,236C229.6,235.9,229.4,235.9,229.3,235.9z"/>
	<g>
		<path class="st19" d="M243,276.2l-0.3-0.2c-1.1-0.6-2-2.4-2-3.9v-16.1c0-1.5,0.9-2.2,2-1.5l0.3,0.2c1.1,0.6,2,2.4,2,3.9v16.1
			C245,276.2,244.1,276.9,243,276.2z"/>
		<path class="st19" d="M251.6,281.2l-0.3-0.2c-1.1-0.6-2-2.4-2-3.9v-9.4c0-1.5,0.9-2.2,2-1.5l0.3,0.2c1.1,0.6,2,2.4,2,3.9v9.4
			C253.7,281.2,252.8,281.9,251.6,281.2z"/>
		<path class="st3" d="M260.3,286.2L260,286c-1.1-0.6-2-2.4-2-3.9v-22.4c0-1.5,0.9-2.2,2-1.5l0.3,0.2c1.1,0.6,2,2.4,2,3.9v22.4
			C262.3,286.2,261.4,286.9,260.3,286.2z"/>
	</g>
</g>
<g>
	<path class="st0" d="M165,453c14.4,8.3,37.8,8.3,52.2,0c14.4-8.3,14.4-21.8,0-30.2c-14.4-8.3-37.8-8.3-52.2,0
		C150.6,431.2,150.6,444.7,165,453z"/>
	<g>
		<path class="st6" d="M168.5,426.6c-2.6,1.1-4.2,4-4,7.1c0.1,1.5,0.3,2.8,0.6,3.4c0.8,1.7,3.5,4.1,7.8,2.4
			c4.3-1.7,13.8-10.6,14.2-16.5C187.7,412.1,175.3,423.7,168.5,426.6z"/>
		<path class="st6" d="M193.7,444.6c0,0-1,6.3-0.5,7.4c0.5,1.1,3.5,3.6,7.9,3.1c4.4-0.5,17.1-4.9,19.9-13.3c4.4-12.9-24.5,1-24.5,1
			L193.7,444.6z"/>
		<path class="st7" d="M206,344.4l1,97.8c-0.1,3.4-2.3,6.3-5.3,6.8c-0.4,0.1-0.8,0.1-1.2,0.2c-3,0.3-4.8-1-5.8-2.4
			c-0.8-1.1-1.2-2.5-1.3-3.9l-1.2-41.8l-6.2-37.3l-8.6,66.1c-0.1,1.8-1,3.4-2.4,4.4c-1,0.6-2.2,1.1-3.9,1.1
			c-2.5-0.1-4.2-1.4-5.2-2.6c-0.8-0.9-1.3-2.2-1.2-3.5l3.4-39.8l1.3-50.7L206,344.4z"/>
		<path class="st8" d="M193.4,256.8l-1.5,8.9c0,0-0.1,3,3.3,3.9c3.4,0.8,4.4-1.3,4.4-1.3l1.5-10L193.4,256.8z"/>
		<path class="st8" d="M212.1,252c-2.4,7.6-9.9,12.1-16.7,9.9c-6.8-2.2-10.3-10.1-7.9-17.8c2.4-7.6,9.9-12.1,16.7-9.9
			C211,236.4,214.5,244.3,212.1,252z"/>
		<path class="st20" d="M193.8,265.9c-0.2-0.1-14.4-9.2-19.6,0.3c-8.5,15.6-2.3,33.4-5.3,72.2c-0.5,6.5,8.7,10.4,13.1,12.9
			c3.9,2.2,8.2,3.6,12.7,3.6c4.4,0,12.9-3.9,12.6-9.7c-1.4-26.6,0.9-49.1,3.1-70.9C210.3,274.4,207.6,271.5,193.8,265.9z"/>
		<path class="st21" d="M185.9,363.7l-8.6,66.1c-0.1,1.8-1,3.4-2.4,4.4c-0.2,0.1-0.5,0.3-0.7,0.4c1.8-1.3,7-56.8,8-63
			C183.1,365.4,185.9,363.7,185.9,363.7z"/>
	</g>
	<polygon class="st8" points="239.7,274 251.6,250.4 247.9,248.1 235.6,266 	"/>
	<polygon class="st8" points="161.5,249 167.2,222.7 171.8,222.8 170.1,244.5 	"/>
	<path class="st20" d="M210.3,274.4c0,0,13.3,5.2,24.7-9.2c1-1.3,3.1-1.1,3.7,0.2c1,2.4,2.3,5.9,0.8,9.3
		c-6.9,14.8-30.4,14.3-36.1,22.6C197.7,305.6,210.3,274.4,210.3,274.4z"/>
	<path class="st20" d="M184.8,262.6c0,0-11,0.8-12.5-8.6c-0.8-4.9-1.1-7.8-1.1-9.5c0-1.1-1-2-2.1-1.9c-2.6,0.3-6.7,1.1-7.2,2.9
		c-0.8,2.6-2.4,15.5,8.5,35.3C177.3,293.7,184.8,262.6,184.8,262.6z"/>
	<path class="st8" d="M167.2,222.8l0.1-3c0-1.1,0.3-2.1,0.9-3l3-5l0.8-1c0.7-0.9,2-1.1,3-0.5l0.7,0.4c0.9,0.6,1.4,1.6,1.3,2.6
		l-1.6,4.3l2-0.4c0.4-0.1,0.8,0.2,0.8,0.6l0,0c0.1,0.3-0.1,0.7-0.4,0.8l-3.2,1.3l-2.9,4.2L167.2,222.8z"/>
	<path class="st8" d="M251.7,250.6l1.4-2.7c0.5-0.9,0.7-2,0.7-3l-0.2-5.8l-0.2-1.3c-0.2-1.2-1.2-2-2.4-1.9l-0.8,0
		c-1.1,0-2,0.7-2.5,1.6L247,242l-1.5-1.3c-0.3-0.3-0.7-0.2-1,0.1l0,0c-0.2,0.3-0.2,0.6,0,0.9l2.2,2.7l0.6,5.7L251.7,250.6z"/>
	<path class="st22" d="M201.7,294.4c-1.2,5.3,5.8,44.9-1.9,59.4c3.9-1.6,7.7-4.6,7.5-8.5c-1-19-0.1-35.9,1.3-52
		c6.6-3.3,16.9-5.3,24.2-10.7C224.9,285.5,202.7,289.7,201.7,294.4z"/>
	<path class="st9" d="M188.7,263.4l2-2c0,0,3.2,3.3,5.8,3.9c0,0,3.1,0.9,4.7,1l1.3,3.5C202.4,269.7,192.1,269,188.7,263.4z"/>
	<path class="st6" d="M202.8,252.2c0.5,0,1-0.3,1.4-0.7c0.5-0.8,0.2-4.4,1.9-5c2.6-0.9,8.7,2.3,9.4-7c0.3-4.9-2-6.2-2-8.8
		c0,0,0.2,1.3-12.3,0.5c-12.5-0.8-16.6,10.3-16.9,15.6c-0.3,5.3,2.3,14,10.8,15.2c1.4,0.2,7.4-4.6,7.2-5.2c-0.2-0.6-2.4-0.6-2.1-2.4
		C200.5,252.8,201.4,252.2,202.8,252.2z"/>
</g>
<g>
	<g>
		<path class="st15" d="M267,139.3l-37.8-21.8c-1.7-1-3-3.6-3-5.8V83.5c0-2.2,1.4-3.3,3-2.3l37.8,21.8c1.7,1,3,3.6,3,5.8V137
			C270,139.2,268.7,140.2,267,139.3z"/>
		<path class="st22" d="M263.3,94.7l-37.8-21.8c-0.7-0.4-1.4-0.4-2-0.2c0,0,0,0,0,0l-3.7,2.1c0,0,1.6,0.6,2.6,0.9v27.5
			c0,2.2,1.4,4.8,3,5.8l36.1,20.8v3.2l3.7-2.1l0,0c0.6-0.4,1-1.2,1-2.4v-28.1C266.3,98.3,264.9,95.7,263.3,94.7z"/>
		<path class="st20" d="M259.5,133l-37.8-21.8c-1.7-1-3-3.6-3-5.8V77.3c0-2.2,1.4-3.3,3-2.3l37.8,21.8c1.7,1,3,3.6,3,5.8v28.1
			C262.6,133,261.2,134,259.5,133z"/>
		<path class="st9" d="M259.5,96.8L221.7,75c-1-0.6-1.8-0.4-2.4,0.2c0.4,0,0.9,0.1,1.3,0.3l37.8,21.8c1.7,1,3,3.6,3,5.8v28.1
			c0,1-0.3,1.7-0.7,2.1c1-0.1,1.7-1,1.7-2.6v-28.1C262.6,100.4,261.2,97.8,259.5,96.8z"/>
	</g>
	<g>
		<path class="st9" d="M234.4,101.5c0,1.6-1.1,2.3-2.5,1.5c-1.4-0.8-2.5-2.8-2.5-4.4c0-1.6,1.1-2.3,2.5-1.5
			C233.3,97.9,234.4,99.9,234.4,101.5z"/>
		<path class="st9" d="M242.2,106c0,1.6-1.1,2.3-2.5,1.5c-1.4-0.8-2.5-2.8-2.5-4.4c0-1.6,1.1-2.3,2.5-1.5
			C241,102.4,242.2,104.4,242.2,106z"/>
		<path class="st9" d="M249.9,110.5c0,1.6-1.1,2.3-2.5,1.5c-1.4-0.8-2.5-2.8-2.5-4.4c0-1.6,1.1-2.3,2.5-1.5
			C248.8,106.9,249.9,108.8,249.9,110.5z"/>
	</g>
</g>
<g>
	<g>
		<path class="st15" d="M342.2,287.6l-37.8-21.8c-1.7-1-3-3.6-3-5.8v-63.2c0-2.2,1.4-3.3,3-2.3l37.8,21.8c1.7,1,3,3.6,3,5.8v63.2
			C345.2,287.5,343.9,288.5,342.2,287.6z"/>
		<path class="st2" d="M338.4,207.9L300.7,186c-0.7-0.4-1.4-0.4-2-0.2c0,0,0,0,0,0L295,188c0,0,1.6,0.6,2.6,0.9v62.6
			c0,2.2,1.4,4.8,3,5.8l36.1,20.8v3.2l3.7-2.1l0,0c0.6-0.4,1-1.2,1-2.4v-63.2C341.5,211.4,340.1,208.8,338.4,207.9z"/>
		<path class="st0" d="M334.7,281.3l-37.8-21.8c-1.7-1-3-3.6-3-5.8v-63.2c0-2.2,1.4-3.3,3-2.3l37.8,21.8c1.7,1,3,3.6,3,5.8V279
			C337.7,281.3,336.4,282.3,334.7,281.3z"/>
		<path class="st9" d="M334.7,210l-37.8-21.8c-1-0.6-1.8-0.4-2.4,0.2c0.4,0,0.9,0.1,1.3,0.3l37.8,21.8c1.7,1,3,3.6,3,5.8v63.2
			c0,1-0.3,1.7-0.7,2.1c1-0.1,1.7-1,1.7-2.6v-63.2C337.7,213.6,336.4,211,334.7,210z"/>
	</g>
</g>
<g>
	<g>
		<path class="st15" d="M342.2,373l-37.8-21.8c-1.7-1-3-3.6-3-5.8v-63.2c0-2.2,1.4-3.3,3-2.3l37.8,21.8c1.7,1,3,3.6,3,5.8v63.2
			C345.2,372.9,343.9,373.9,342.2,373z"/>
		<path class="st11" d="M338.4,293.3l-37.8-21.8c-0.7-0.4-1.4-0.4-2-0.2c0,0,0,0,0,0l-3.7,2.1c0,0,1.6,0.6,2.6,0.9V337
			c0,2.2,1.4,4.8,3,5.8l36.1,20.8v3.2l3.7-2.1l0,0c0.6-0.4,1-1.2,1-2.4v-63.2C341.5,296.8,340.1,294.2,338.4,293.3z"/>
		<path class="st1" d="M334.7,366.8l-37.8-21.8c-1.7-1-3-3.6-3-5.8v-63.2c0-2.2,1.4-3.3,3-2.3l37.8,21.8c1.7,1,3,3.6,3,5.8v63.2
			C337.7,366.7,336.4,367.7,334.7,366.8z"/>
		<path class="st9" d="M334.7,295.4l-37.8-21.8c-1-0.6-1.8-0.4-2.4,0.2c0.4,0,0.9,0.1,1.3,0.3l37.8,21.8c1.7,1,3,3.6,3,5.8V365
			c0,1-0.3,1.7-0.7,2.1c1-0.1,1.7-1,1.7-2.6v-63.2C337.7,299,336.4,296.4,334.7,295.4z"/>
	</g>
</g>
<g>
	<g>
		<path class="st0" d="M88.6,400.4l33.2-18.7c1.5-0.8,4-0.7,5.7,0.3l21.1,12.5c1.7,1,1.9,2.5,0.4,3.3l-33.2,18.7
			c-1.5,0.8-4,0.7-5.7-0.3L89,403.8C87.3,402.8,87.2,401.3,88.6,400.4z"/>
		<path class="st14" d="M115.4,407.1l38-21.4c0.8-0.4,1.1-1,1.1-1.6c0,0,0,0,0,0l0-4.2c0,0-1.3,1.1-2.1,1.7l-23.7-14
			c-1.9-1.1-4.9-1.3-6.5-0.3l-36.3,20.5l-2.8-1.6l0,4.3l0,0c0,0.7,0.5,1.5,1.6,2.1l24.2,14.3C110.8,407.9,113.7,408.1,115.4,407.1z"
			/>
		<path class="st7" d="M84.3,384.4l38-21.4c1.7-1,4.6-0.8,6.5,0.3l24.2,14.3c1.9,1.1,2.1,2.8,0.4,3.8l-38,21.4
			c-1.7,1-4.6,0.8-6.5-0.3l-24.2-14.3C82.8,387,82.6,385.4,84.3,384.4z"/>
		<path class="st9" d="M115.4,402.8l38-21.4c1-0.5,1.3-1.3,1.1-2.1c-0.2,0.4-0.5,0.7-1,1l-38,21.4c-1.7,1-4.6,0.8-6.5-0.3
			l-24.2-14.3c-0.8-0.5-1.3-1.1-1.5-1.7c-0.4,0.9,0,2,1.4,2.8l24.2,14.3C110.8,403.6,113.7,403.8,115.4,402.8z"/>
	</g>
	<g>
		<path class="st9" d="M124.1,378.8c-1.4-0.8-1.4-2.1,0-2.9c1.4-0.8,3.7-0.8,5.1,0.1c1.4,0.8,1.4,2.1,0,2.9
			C127.8,379.7,125.5,379.7,124.1,378.8z"/>
		<path class="st9" d="M116.4,383.2c-1.4-0.8-1.4-2.1,0-2.9c1.4-0.8,3.7-0.8,5.1,0.1c1.4,0.8,1.4,2.1,0,2.9
			C120.1,384.1,117.8,384.1,116.4,383.2z"/>
		<path class="st9" d="M108.6,387.6c-1.4-0.8-1.4-2.1,0-2.9c1.4-0.8,3.7-0.8,5.1,0.1c1.4,0.8,1.4,2.1,0,2.9
			C112.3,388.5,110,388.4,108.6,387.6z"/>
	</g>
</g>
<g>
	<path class="st0" d="M75.7,366.2c-10.4,6-27.2,6-37.6,0c-10.4-6-10.4-15.7,0-21.7c10.4-6,27.2-6,37.6,0
		C86.1,350.5,86.1,360.2,75.7,366.2z"/>
	<g>
		<path class="st23" d="M41.9,169.9c0,0,0.7,14.1,1.8,23.5c1.1,9.5,23.9-7.3,23.9-7.3v-10.8L41.9,169.9z"/>
		<g>
			<path class="st6" d="M54,345.1c0.3,0.9,6.2,8,12.2,9.8c2.6,0.8,4.3,0.9,5.4,0.7c1.1-0.1,1.8-1.3,1.5-2.4
				c-1-2.9-3.9-8.8-11.3-12.5C51.7,335.9,54,345.1,54,345.1z"/>
			<path class="st6" d="M52.1,347.9c0,0,2.2,5.2,2.9,9.6c0.4,2.7-1,6.1-2.2,8.4c-0.7,1.4-2.6,1.7-3.8,0.7c-1.9-1.8-4.4-4.8-4.8-9.2
				c-0.7-7.4,0-8.6,0-8.6L52.1,347.9z"/>
			<path class="st7" d="M37.8,258.9c0,0-0.8,9.3,0,19.6c0.8,10.3,3.5,58.3,4,69.9c0,0-0.3,3.5,6.5,2.7c6.8-0.8,6.2-4.7,6.2-4.7
				s9.5-0.1,9.8-5.7c0.3-5.6,9.7-67,9.7-89L37.8,258.9z"/>
			<g>
				<path class="st8" d="M77.7,210.9l4.7,7.2l16,19.3c0,0-0.6,1.8-2.5,2.3c-1.6,0.4-15-12.5-20.9-18.1c-1.5-1.5-1.8-3.9-0.6-5.7
					L77.7,210.9z"/>
				<path class="st24" d="M68.6,181.3c0,0,7.4-0.2,10,10.5c2.6,10.7,4.6,24.1,2.4,25.2c-6.7,3.3-11-0.6-11-0.6L68.6,181.3z"/>
				<path class="st20" d="M70.8,181.7c-1.3-0.5-2.7-0.6-4-0.2c-6.3,1.8-30,8.8-33.9,12.1c-4.5,3.9,6.8,25.5,6.6,32.7
					s-1,15.5-1.6,23.2c-0.6,7.7-1.5,12,4.8,15.3c6.3,3.3,17.1,3.4,25.2-2.7c8.1-6.2,6.6-10.4,6.3-14.8c-0.3-4.5-3.1-23.8-2.8-29.3
					c0,0,2.8-2.1,5-5.7c2.1-3.6-1.6-10.2-3.2-14.5c-1.5-4.3,0.9-9.2,0.4-12.7C73.3,183.2,72.2,182.3,70.8,181.7z"/>
				<ellipse transform="matrix(0.9919 -0.127 0.127 0.9919 -23.731 8.4444)" class="st9" cx="54.3" cy="190.3" rx="9" ry="7.1"/>
				
					<ellipse transform="matrix(0.9919 -0.1271 0.1271 0.9919 -23.7324 8.445)" class="st8" cx="54.3" cy="190.3" rx="6.4" ry="5.1"/>
				<path class="st8" d="M57.2,180.3c0,0-4.3-3.5-5.1-1.7c-0.8,1.8-1.5,9.4-1.5,9.4l8.5,2.3l-1.3-7.8
					C57.8,182.5,59.5,181.1,57.2,180.3z"/>
				
					<ellipse transform="matrix(5.896223e-02 -0.9983 0.9983 5.896223e-02 -116.427 218.762)" class="st8" cx="57.8" cy="171.1" rx="12.7" ry="12.7"/>
				<path class="st10" d="M51.5,180.7c-0.1,0.4-0.1,0.8-0.2,1.3c0.9,4.4,7.5,6.3,7.5,6.3l-1-5.9c0,0,0.8-0.7,0.6-1.4
					C55.7,180.3,52.4,179.6,51.5,180.7z"/>
				
					<ellipse transform="matrix(5.896223e-02 -0.9983 0.9983 5.896223e-02 -116.427 218.762)" class="st8" cx="57.8" cy="171.1" rx="12.7" ry="12.7"/>
				<polygon class="st8" points="26.5,224.9 28,258.8 32.9,259.3 36.2,228.8 				"/>
				<path class="st24" d="M42.9,222c-0.3-1.2-2.4-2.2-2.8-3.7c-1.7-7.9-2.1-19.6-2.1-19.6l-1.4,15.9c1.6,4.7,3,9.1,2.9,11.6
					c-0.1,4.2-0.4,8.8-0.8,13.4l0,0C38.7,239.7,44.5,229.3,42.9,222z"/>
				<path class="st25" d="M33.8,192.9c0,0-4,1.5-6.2,13.7c-2.2,12.2-3.9,24.4,0.1,26c4,1.6,7.4,2.8,8.5-0.5c1.2-3.3,1.9-19,2.1-24.6
					C38.4,201.8,38.7,194,33.8,192.9z"/>
				<path class="st8" d="M97.2,236c0,0,2.2,0.8,3.7,2.5c1.3,1.4,2,2.6,2.5,3.4c1.2,1.8,2.3,5.8,1.5,6.3c-0.8,0.5-5.1-6.7-5.8-5
					c-0.7,1.7,0,3.2-0.9,3.2c-0.9,0-4-7.2-6.4-9.5S97.2,236,97.2,236z"/>
			</g>
			<path class="st21" d="M54.6,346.4c0,0,1.2,0,2.7-0.3l0,0l1.9-74.7L54.6,346.4z"/>
		</g>
		<g>
			<path class="st20" d="M47.4,306.1l-2.6-3.4L17,286.5c-0.9-0.5-1.6-1.9-1.6-3.1l0-22.7l-1.6-2.1l1.5-0.9l0,0
				c0.3-0.2,0.7-0.2,1.1,0.1L47.9,276c0.9,0.5,1.6,1.9,1.6,3.1l0,24.8c0,0.7-0.2,1.1-0.6,1.3h0L47.4,306.1z"/>
			<path class="st26" d="M28.2,293l-2-1.1l-10.8-18.8l0-12.4l-1.6-2.1l1.5-0.9l0,0c0.3-0.2,0.7-0.2,1.1,0.1L47.9,276
				c0.5,0.3,0.9,0.8,1.2,1.4L28.2,293z"/>
			<path class="st26" d="M14.5,259.5l-0.7-0.9l1.5-0.9l0,0c0.3-0.2,0.7-0.2,1.1,0.1l0.6,0.3L14.5,259.5z"/>
			<path class="st20" d="M48.2,276.2c0.7,0.6,1.2,1.7,1.3,2.7l-3.1,1.8l-1.5-2.6L48.2,276.2z"/>
			<path class="st25" d="M46.4,276.9l-31.5-18.2c-0.9-0.5-1.6,0-1.6,1.2l0,24.8c0,1.2,0.7,2.6,1.6,3.1L46.4,306
				c0.9,0.5,1.6,0,1.6-1.2l0-24.8C48,278.8,47.3,277.4,46.4,276.9z"/>
		</g>
		<polygon class="st9" points="39.9,294.7 38.4,293.8 38.4,280.9 39.9,281.8 		"/>
		<polygon class="st9" points="36.4,292.6 34.9,291.8 34.9,278.9 36.4,279.8 		"/>
		<polygon class="st9" points="32.9,290.6 31.4,289.8 31.4,276.9 32.9,277.7 		"/>
		<path class="st8" d="M28,258.5c0,0-1.3,7.9-1.1,10.5c0.2,2.5,1.6,6.7,2.6,6.6c1-0.1,0-10.2,1.8-9.2c1.8,1,2,2.7,2.8,2.1
			s-1.4-9.3-0.8-13C33.9,251.8,28,258.5,28,258.5z"/>
		<path class="st10" d="M62.7,172.2c6.4,2.3,7.6,0.9,7.7,0.8c0.1-0.4,0.1-0.8,0.1-1.2c0.1-1.4-0.1-2.8-0.4-4.1l-16.5-2.2
			C53.5,165.6,56.2,169.9,62.7,172.2z"/>
		<path class="st23" d="M70.9,159.2c-1.5-1.3-6.9-7.6-16.6-6.1c-6.1,0.9-11.2,5.1-12.3,14.5c-0.8,6.4,1.6,12.6,5.9,17.2
			c0.2-0.1,0.5-0.2,0.7-0.3c2.4-1.6,2.7-2.5,2.7-2.5l0.5-4.8c0-0.7-0.5-1.3-1.2-1.3c-0.5,0-1.2-0.3-1.8-1.1c-1.4-1.8-0.8-4.7,2-4.8
			c1.5-0.1,2-0.8,2.2-1.6c0.2-0.6,0.9-1,1.5-0.8c3.2,1.1,11,3.6,16,2.2C77,168,72.4,160.5,70.9,159.2z"/>
		<path class="st9" d="M63.7,178l3.9-1.1c0,0-1.9,2.9-4.6,3.7c-2.7,0.7-3.1-1.5-3.1-1.5L63.7,178z"/>
		<polygon class="st26" points="34.6,268.3 31.3,266.4 32.5,268.5 34.2,269.1 		"/>
	</g>
</g>
<g>
	<g>
		<path class="st11" d="M107.6,273.7l37.9-21.6c0.8-0.4,1.1-1,1.1-1.6c0,0,0,0,0,0l0-4.2c0,0-1.3,1.1-2.1,1.7l-23.7-13.9
			c-1.9-1.1-4.9-1.3-6.5-0.3l-36.2,20.6l-2.8-1.6l0,4.3l0,0c0,0.7,0.5,1.5,1.6,2.1l24.2,14.2C103,274.6,105.9,274.7,107.6,273.7z"/>
		<path class="st1" d="M76.4,251.1l37.9-21.6c1.7-1,4.6-0.8,6.5,0.3l24.2,14.2c1.9,1.1,2.1,2.8,0.4,3.8l-37.9,21.6
			c-1.7,1-4.6,0.8-6.5-0.3l-24.2-14.2C74.9,253.8,74.7,252.1,76.4,251.1z"/>
		<path class="st9" d="M107.7,269.4l37.9-21.6c1-0.5,1.3-1.3,1.1-2.1c-0.2,0.4-0.5,0.7-1,1l-37.9,21.6c-1.7,1-4.6,0.8-6.5-0.3
			L77,253.8c-0.8-0.5-1.3-1.1-1.5-1.7c-0.4,0.9,0,2,1.4,2.8l24.2,14.2C103,270.3,106,270.4,107.7,269.4z"/>
	</g>
	<g>
		<path class="st9" d="M116.3,245.4c-1.4-0.8-1.4-2.1,0-2.9c1.4-0.8,3.7-0.8,5.1,0c1.4,0.8,1.4,2.1,0,2.9
			C120,246.3,117.7,246.2,116.3,245.4z"/>
		<path class="st9" d="M108.5,249.8c-1.4-0.8-1.4-2.1,0-2.9c1.4-0.8,3.7-0.8,5.1,0c1.4,0.8,1.4,2.1,0,2.9
			C112.2,250.7,109.9,250.7,108.5,249.8z"/>
		<path class="st9" d="M100.8,254.2c-1.4-0.8-1.4-2.1,0-2.9c1.4-0.8,3.7-0.8,5.1,0c1.4,0.8,1.4,2.1,0,2.9
			C104.5,255.1,102.2,255.1,100.8,254.2z"/>
	</g>
</g>
<g>
	<path class="st11" d="M321.3,304c0,3.5-2.5,4.9-5.5,3.2c-3-1.8-5.5-6-5.5-9.5c0-3.5,2.5-4.9,5.5-3.2
		C318.9,296.2,321.3,300.5,321.3,304z"/>
	<path class="st11" d="M323.6,313.9c0-0.1,0-0.1,0-0.2c-0.2-1.5-1.6-2.8-2.6-2.5c-1.4,0.5-3.2,0.3-5.2-0.9s-3.8-3-5.2-5.2
		c-0.9-1.4-2.3-1.7-2.6-0.5c0,0,0,0.1,0,0.1l-2.6,16.6l20.8,12L323.6,313.9z"/>
</g>
<g>
	<path class="st9" d="M321.3,304c0,3.5-2.5,4.9-5.5,3.2c-3-1.8-5.5-6-5.5-9.5c0-3.5,2.5-4.9,5.5-3.2
		C318.9,296.2,321.3,300.5,321.3,304z"/>
	<path class="st9" d="M323.6,313.9c0-0.1,0-0.1,0-0.2c-0.2-1.5-1.6-2.8-2.6-2.5c-1.4,0.5-3.2,0.3-5.2-0.9s-3.8-3-5.2-5.2
		c-0.9-1.4-2.3-1.7-2.6-0.5c0,0,0,0.1,0,0.1l-2.6,16.6l20.8,12L323.6,313.9z"/>
</g>
<g>
	<polygon class="st9" points="327.7,346.2 302.4,331.6 302.4,329.7 327.7,344.4 	"/>
	<polygon class="st9" points="320.1,349.7 302.4,339.5 302.4,337.7 320.1,347.9 	"/>
	<polygon class="st9" points="317.7,344.4 302.4,335.6 302.4,333.7 317.7,342.6 	"/>
	<polygon class="st9" points="327.7,350.2 320.1,345.8 320.1,343.9 327.7,348.3 	"/>
</g>
<g>
	<polygon class="st2" points="327.8,224.3 302.5,209.7 302.5,207.8 327.8,222.5 	"/>
	<polygon class="st2" points="320.1,227.8 302.5,217.6 302.5,215.8 320.1,226 	"/>
	<polygon class="st2" points="317.8,222.5 302.5,213.7 302.5,211.8 317.8,220.7 	"/>
	<polygon class="st2" points="327.8,228.3 320.1,223.9 320.1,222 327.8,226.4 	"/>
</g>
<g>
	<polygon class="st2" points="327.8,239.7 302.5,225.1 302.5,223.2 327.8,237.9 	"/>
	<polygon class="st2" points="320.1,243.2 302.5,233 302.5,231.2 320.1,241.4 	"/>
	<polygon class="st2" points="317.8,237.9 302.5,229 302.5,227.2 317.8,236.1 	"/>
	<polygon class="st2" points="327.8,243.7 320.1,239.3 320.1,237.4 327.8,241.8 	"/>
</g>
<g>
	<polygon class="st2" points="327.8,255.1 302.5,240.5 302.5,238.6 327.8,253.2 	"/>
	<polygon class="st2" points="320.1,258.6 302.5,248.4 302.5,246.6 320.1,256.8 	"/>
	<polygon class="st2" points="317.8,253.3 302.5,244.4 302.5,242.6 317.8,251.4 	"/>
	<polygon class="st2" points="327.8,259.1 320.1,254.6 320.1,252.8 327.8,257.2 	"/>
</g>
<g>
	<polygon class="st9" points="248,298.3 230,287.8 230,286.1 248,296.6 	"/>
	<polygon class="st9" points="259.2,304.7 251.5,300.3 251.5,298.6 259.2,303 	"/>
	<polygon class="st9" points="248.6,302.3 240.9,297.8 240.9,296.1 248.6,300.6 	"/>
	<polygon class="st9" points="265.3,311.9 251.5,303.9 251.5,302.2 265.3,310.2 	"/>
	<polygon class="st9" points="274.8,321.1 254.3,309.2 254.3,307.6 274.8,319.4 	"/>
	<polygon class="st9" points="270.2,311.1 262.5,306.6 262.5,304.9 270.2,309.4 	"/>
	<polygon class="st9" points="237.7,295.9 230,291.5 230,289.8 237.7,294.3 	"/>
	<polygon class="st9" points="251,307.3 229.9,295.1 229.9,293.5 251,305.6 	"/>
	<polygon class="st9" points="242.9,306.3 230.2,299 230.2,297.3 242.9,304.6 	"/>
</g>
<path class="st7" d="M430.3,395.2c-0.5,0-0.9-0.2-1.2-0.7c-0.4-0.7-0.2-1.5,0.5-1.9l53.5-31.6c0.4-0.3,0.5-0.7,0.5-0.8
	c0-0.2,0-0.6-0.5-0.8l-14.6-8.8c-0.7-0.4-0.9-1.2-0.5-1.9c0.4-0.7,1.2-0.9,1.9-0.5l14.6,8.8c1.1,0.7,1.8,1.9,1.8,3.2
	c0,1.3-0.7,2.5-1.8,3.2L431,395C430.7,395.1,430.5,395.2,430.3,395.2z"/>
<g>
	<polygon class="st0" points="440.7,419.4 422.1,408.7 403.6,419.4 422.1,430.1 	"/>
	<polygon class="st11" points="422.1,420.2 422.1,408.1 444.3,395.3 444.3,407.4 	"/>
	<polygon class="st11" points="422.1,408.1 400,395.3 400,407.4 422.1,420.2 	"/>
	<polygon class="st1" points="444.3,395.3 422.1,382.5 400,395.3 422.1,408.1 	"/>
</g>
<polygon class="st15" points="243.1,137.9 246.8,150.1 256.4,156.7 249.1,159.7 251.3,171.9 243.1,161.3 234.9,162.4 237,152.7 
	229.8,141.4 239.3,145.8 "/>
<polygon class="st15" points="273.6,155.3 277.3,167.6 286.9,174.2 279.6,177.2 281.8,189.3 273.6,178.7 265.4,179.8 267.5,170.2 
	260.3,158.8 269.8,163.3 "/>
<polygon class="st15" points="225.9,139.3 216.3,132.7 212.6,120.4 212,121.6 212,143.9 212.6,143.8 220.8,154.4 218.6,142.2 "/>
<g>
	<g>
		<g>
			<polygon class="st13" points="145.1,77.4 148.9,89.7 158.4,96.3 151.2,99.2 153.4,111.4 145.1,100.8 136.9,101.9 139.1,92.3 
				131.8,80.9 141.4,85.4 			"/>
			<path class="st14" d="M127.4,83.5l4.5-2.6l6.9,3.2c0,0,0,4.6,0,4.7c0,0.1-2.8,0.2-3,0.2C135.5,89.1,127.4,83.5,127.4,83.5z"/>
			<path class="st13" d="M153.4,111.4l-4.5,2.6l-2.2-12.2c0,0,2.2-2.3,2.2-2.3c0,0,2.4,0.4,2.4,0.4L153.4,111.4z"/>
			<polygon class="st7" points="140.7,80 144.4,92.3 154,98.8 146.7,101.8 148.9,114 140.7,103.4 132.4,104.5 134.6,94.8 
				127.4,83.5 136.9,87.9 			"/>
			<path class="st9" d="M148.9,114l-2.2-12.2l7.3-3l-9.6-6.6L140.7,80l-3.7,7.9l-9.6-4.5l0.7,1l9.2,4.3l3.3-7l3.3,10.8l8.8,6
				l-6.6,2.7l2,11.5L148.9,114z"/>
			<polygon class="st13" points="140.7,80 145.1,77.4 148.9,89.7 144.4,92.3 			"/>
			<polygon class="st14" points="158.4,96.3 154,98.8 144.4,92.3 148.9,89.7 			"/>
		</g>
		<polygon class="st9" points="144.6,92.6 143.9,92.2 148.8,89.4 148.9,89.7 149.2,89.9 		"/>
	</g>
	<g>
		<g>
			<polygon class="st13" points="175.6,94.9 179.4,107.2 189,113.7 181.7,116.7 183.9,128.9 175.6,118.3 167.4,119.4 169.6,109.7 
				162.3,98.4 171.9,102.8 			"/>
			<path class="st14" d="M157.9,100.9l4.5-2.6l6.9,3.2c0,0,0,4.6,0,4.7c0,0.1-2.8,0.2-3,0.2S157.9,100.9,157.9,100.9z"/>
			<path class="st13" d="M183.9,128.9l-4.5,2.6l-2.2-12.2c0,0,2.2-2.3,2.2-2.3c0,0,2.4,0.4,2.4,0.4L183.9,128.9z"/>
			<polygon class="st7" points="171.2,97.5 174.9,109.7 184.5,116.3 177.2,119.3 179.4,131.4 171.2,120.8 162.9,121.9 165.1,112.3 
				157.9,100.9 167.4,105.4 			"/>
			<path class="st9" d="M179.4,131.4l-2.2-12.2l7.3-3l-9.6-6.6l-3.7-12.3l-3.7,7.9l-9.6-4.5l0.7,1l9.2,4.3l3.3-7l3.3,10.8l8.8,6
				l-6.6,2.7l2,11.5L179.4,131.4z"/>
			<polygon class="st13" points="171.2,97.5 175.6,94.9 179.4,107.2 174.9,109.7 			"/>
			<polygon class="st14" points="189,113.7 184.5,116.3 174.9,109.7 179.4,107.2 			"/>
		</g>
		<polygon class="st9" points="175.1,110 174.5,109.6 179.3,106.8 179.4,107.2 179.7,107.4 		"/>
	</g>
	<g>
		<g>
			<polygon class="st13" points="206.1,112.4 209.9,124.6 219.5,131.2 212.2,134.2 214.4,146.3 206.1,135.7 197.9,136.8 
				200.1,127.2 192.8,115.8 202.4,120.3 			"/>
			<path class="st14" d="M188.4,118.4l4.5-2.6l6.9,3.2c0,0,0,4.6,0,4.7s-2.8,0.2-3,0.2S188.4,118.4,188.4,118.4z"/>
			<path class="st13" d="M214.4,146.3l-4.5,2.6l-2.2-12.2c0,0,2.2-2.3,2.2-2.3c0,0,2.4,0.4,2.4,0.4L214.4,146.3z"/>
			<polygon class="st7" points="201.7,114.9 205.4,127.2 215,133.8 207.7,136.7 209.9,148.9 201.7,138.3 193.5,139.4 195.6,129.7 
				188.4,118.4 197.9,122.9 			"/>
			<path class="st9" d="M209.9,148.9l-2.2-12.2l7.3-3l-9.6-6.6l-3.7-12.3l-3.7,7.9l-9.6-4.5l0.7,1l9.2,4.3l3.3-7l3.3,10.8l8.8,6
				l-6.6,2.7l2,11.5L209.9,148.9z"/>
			<polygon class="st13" points="201.7,114.9 206.1,112.4 209.9,124.6 205.4,127.2 			"/>
			<polygon class="st14" points="219.5,131.2 215,133.8 205.4,127.2 209.9,124.6 			"/>
		</g>
		<polygon class="st9" points="205.6,127.5 205,127.1 209.8,124.3 209.9,124.6 210.2,124.8 		"/>
	</g>
	<g>
		<g>
			<polygon class="st13" points="236.7,129.8 240.4,142.1 250,148.7 242.7,151.6 244.9,163.8 236.7,153.2 228.4,154.3 230.6,144.6 
				223.3,133.3 232.9,137.8 			"/>
			<path class="st14" d="M218.9,135.9l4.5-2.6l6.9,3.2c0,0,0,4.6,0,4.7c0,0.1-2.8,0.2-3,0.2C227,141.5,218.9,135.9,218.9,135.9z"/>
			<path class="st13" d="M244.9,163.8l-4.5,2.6l-2.2-12.2c0,0,2.2-2.3,2.2-2.3c0,0,2.4,0.4,2.4,0.4L244.9,163.8z"/>
			<polygon class="st7" points="232.2,132.4 235.9,144.6 245.5,151.2 238.2,154.2 240.4,166.4 232.2,155.8 224,156.9 226.1,147.2 
				218.9,135.9 228.5,140.3 			"/>
			<path class="st9" d="M240.4,166.4l-2.2-12.2l7.3-3l-9.6-6.6l-3.7-12.3l-3.7,7.9l-9.6-4.5l0.7,1l9.2,4.3l3.3-7l3.3,10.8l8.8,6
				l-6.6,2.7l2,11.5L240.4,166.4z"/>
			<polygon class="st13" points="232.2,132.4 236.7,129.8 240.4,142.1 235.9,144.6 			"/>
			<polygon class="st14" points="250,148.7 245.5,151.2 235.9,144.6 240.4,142.1 			"/>
		</g>
		<polygon class="st9" points="236.2,145 235.5,144.6 240.3,141.8 240.4,142.1 240.7,142.3 		"/>
	</g>
	<g>
		<g>
			<polygon class="st13" points="267.2,147.3 270.9,159.5 280.5,166.1 273.2,169.1 275.4,181.3 267.2,170.7 258.9,171.8 
				261.1,162.1 253.9,150.8 263.4,155.2 			"/>
			<path class="st14" d="M249.4,153.3l4.5-2.6l6.9,3.2c0,0,0,4.6,0,4.7c0,0.1-2.8,0.2-3,0.2S249.4,153.3,249.4,153.3z"/>
			<path class="st13" d="M275.4,181.3l-4.5,2.6l-2.2-12.2c0,0,2.2-2.3,2.2-2.3c0,0,2.4,0.4,2.4,0.4L275.4,181.3z"/>
			<polygon class="st7" points="262.7,149.8 266.4,162.1 276,168.7 268.7,171.7 270.9,183.8 262.7,173.2 254.5,174.3 256.6,164.7 
				249.4,153.3 259,157.8 			"/>
			<path class="st9" d="M270.9,183.8l-2.2-12.2l7.3-3l-9.6-6.6l-3.7-12.3l-3.7,7.9l-9.6-4.5l0.7,1l9.2,4.3l3.3-7l3.3,10.8l8.8,6
				l-6.6,2.7l2,11.5L270.9,183.8z"/>
			<polygon class="st13" points="262.7,149.8 267.2,147.3 270.9,159.5 266.4,162.1 			"/>
			<polygon class="st14" points="280.5,166.1 276,168.7 266.4,162.1 270.9,159.5 			"/>
		</g>
		<polygon class="st9" points="266.7,162.4 266,162 270.8,159.2 270.9,159.5 271.2,159.8 		"/>
	</g>
</g>
</svg>
