<svg id="Layer_1" data-name="Layer 1" xmlns="http://www.w3.org/2000/svg" viewBox="0 0 1620.65 648.26"><title>logoArtboard 5 copy</title><path d="M260,544.41H103.79V103.85H261.26q66.47,0,114.44,26.35t73.89,75.61q25.92,49.26,25.92,117.88,0,68.84-25.92,118.31t-74.21,75.94Q327.08,544.41,260,544.41Zm-63-79.81h59.16q41.3,0,69.59-14.74T368.28,404q14.3-31.08,14.3-80.35,0-48.83-14.3-79.81t-42.49-45.6q-28.18-14.63-69.48-14.63H196.94Z"/><path d="M621,544.41,494.91,103.85H596.66L669.58,410h3.66l80.45-306.11h87.12l80.24,306.76h3.87l72.93-306.76H1099.6L973.54,544.41H882.76l-83.9-288h-3.44l-83.68,288Z"/><path d="M1192.68,544.41h-99.81l152.09-440.56h120l151.87,440.56H1417L1306.69,204.53h-3.44Zm-6.24-173.17h235.77v72.71H1186.44Z"/></svg>