<?xml version="1.0" encoding="utf-8"?>
<!-- Generator: Adobe Illustrator 21.0.2, SVG Export Plug-In . SVG Version: 6.00 Build 0)  -->
<svg version="1.1" id="Layer_1" xmlns="http://www.w3.org/2000/svg" xmlns:xlink="http://www.w3.org/1999/xlink" x="0px" y="0px"
	 viewBox="0 0 500 500" style="enable-background:new 0 0 500 500;" xml:space="preserve">
<style type="text/css">
	.st0{fill:none;stroke:url(#SVGID_1_);stroke-width:0.9827;stroke-miterlimit:10;}
	.st1{fill:none;stroke:url(#SVGID_2_);stroke-width:0.4846;stroke-miterlimit:10;}
	.st2{fill:none;stroke:url(#SVGID_3_);stroke-width:2.9078;stroke-miterlimit:10;}
	.st3{fill:url(#SVGID_4_);}
	.st4{fill:url(#SVGID_5_);}
	.st5{fill:url(#SVGID_6_);}
	.st6{fill:url(#SVGID_7_);}
	.st7{fill:url(#SVGID_8_);}
	.st8{fill:url(#SVGID_9_);}
	.st9{fill:url(#SVGID_10_);}
	.st10{fill:url(#SVGID_11_);}
	.st11{fill:url(#SVGID_12_);}
	.st12{fill:#A1A1A1;}
	.st13{opacity:0.8;fill:url(#SVGID_13_);}
	.st14{opacity:0.8;fill:url(#SVGID_14_);}
	.st15{opacity:0.7;fill:url(#SVGID_15_);}
	.st16{opacity:0.4;fill:url(#SVGID_16_);}
	.st17{opacity:0.7;fill:url(#SVGID_17_);}
	.st18{opacity:0.5;fill:url(#SVGID_18_);}
	.st19{opacity:0.8;fill:url(#SVGID_19_);}
	.st20{opacity:0.8;fill:url(#SVGID_20_);}
	.st21{opacity:0.7;fill:url(#SVGID_21_);}
	.st22{opacity:0.4;fill:url(#SVGID_22_);}
	.st23{opacity:0.7;fill:url(#SVGID_23_);}
	.st24{opacity:0.5;fill:url(#SVGID_24_);}
	.st25{opacity:0.8;fill:url(#SVGID_25_);}
	.st26{opacity:0.8;fill:url(#SVGID_26_);}
	.st27{opacity:0.7;fill:url(#SVGID_27_);}
	.st28{opacity:0.4;fill:url(#SVGID_28_);}
	.st29{opacity:0.7;fill:url(#SVGID_29_);}
	.st30{opacity:0.5;fill:url(#SVGID_30_);}
	.st31{opacity:5.000000e-02;fill:#FFFFFF;}
	.st32{opacity:0.3;fill:#FFFFFF;}
	.st33{opacity:0.2;fill:#FFFFFF;}
	.st34{fill:#FFFFFF;}
	.st35{fill:url(#SVGID_31_);}
	.st36{fill:url(#SVGID_32_);}
	.st37{fill:url(#SVGID_33_);}
	.st38{fill:url(#SVGID_34_);}
	.st39{fill:url(#SVGID_35_);}
	.st40{fill:url(#SVGID_36_);}
</style>
<g>
	<g>
		<linearGradient id="SVGID_1_" gradientUnits="userSpaceOnUse" x1="124.0105" y1="369.0843" x2="375.9231" y2="369.0843">
			<stop  offset="0" style="stop-color:#39A6FF"/>
			<stop  offset="1" style="stop-color:#F648FF"/>
		</linearGradient>
		
			<ellipse transform="matrix(0.9999 -1.603102e-02 1.603102e-02 0.9999 -5.8847 4.0547)" class="st0" cx="250" cy="369.1" rx="125.5" ry="80.2"/>
		<linearGradient id="SVGID_2_" gradientUnits="userSpaceOnUse" x1="117.1278" y1="370.5685" x2="382.8534" y2="370.5685">
			<stop  offset="0" style="stop-color:#39A6FF"/>
			<stop  offset="1" style="stop-color:#F648FF"/>
		</linearGradient>
		
			<ellipse transform="matrix(0.9999 -1.603097e-02 1.603097e-02 0.9999 -5.9084 4.0552)" class="st1" cx="250" cy="370.6" rx="132.6" ry="84.7"/>
		<linearGradient id="SVGID_3_" gradientUnits="userSpaceOnUse" x1="137.9191" y1="369.3121" x2="362.0219" y2="369.3121">
			<stop  offset="0" style="stop-color:#39A6FF"/>
			<stop  offset="1" style="stop-color:#F648FF"/>
		</linearGradient>
		
			<ellipse transform="matrix(0.9999 -1.603182e-02 1.603182e-02 0.9999 -5.8886 4.0549)" class="st2" cx="250" cy="369.3" rx="110.6" ry="70.7"/>
	</g>
	<g>
		<linearGradient id="SVGID_4_" gradientUnits="userSpaceOnUse" x1="146.2549" y1="138.2716" x2="316.4297" y2="138.2716">
			<stop  offset="0" style="stop-color:#39A6FF"/>
			<stop  offset="1" style="stop-color:#F648FF"/>
		</linearGradient>
		<path class="st3" d="M314.7,122.8c-14.4-8.6-30.7-13.4-47.2-15.5c-4.1-0.6-8.3-0.8-12.4-1c-4.2-0.1-8.3-0.2-12.5,0
			c-4.2,0.1-8.3,0.5-12.4,1c-4.1,0.6-8.2,1.2-12.3,2.1c-8.1,1.7-16.1,4.2-23.7,7.4c-3.8,1.6-7.5,3.5-11.1,5.5c-3.6,2-7,4.3-10.3,6.8
			c-6.6,4.9-12.3,10.9-16.5,17.9c-4.2,6.9-6.6,14.9-6.4,22.9c0,1-0.7,1.8-1.7,1.8c-1,0-1.8-0.7-1.8-1.7c0,0,0,0,0,0l0,0
			c0-4.4,0.6-8.7,1.9-12.9c1.3-4.1,3.1-8.1,5.4-11.7c4.6-7.3,10.7-13.4,17.6-18.4c6.8-5,14.4-9,22.2-12.2c7.8-3.1,15.9-5.5,24.2-7.1
			c4.1-0.8,8.3-1.4,12.5-1.9c4.2-0.4,8.4-0.7,12.6-0.8c4.2-0.1,8.4,0,12.6,0.2c4.2,0.3,8.4,0.6,12.5,1.3
			C284.1,108.8,300.5,114,314.7,122.8z"/>
	</g>
	<g>
		<g>
			<linearGradient id="SVGID_5_" gradientUnits="userSpaceOnUse" x1="145.2426" y1="393.7073" x2="354.7625" y2="393.7073">
				<stop  offset="0" style="stop-color:#13477C"/>
				<stop  offset="1" style="stop-color:#6C21AD"/>
			</linearGradient>
			<path class="st4" d="M251.1,435.4c57.9-0.9,104.3-31.6,103.7-68.6l-0.1-14.8l-209.5,4.6l0,13.6
				C145.9,407.1,193.2,436.3,251.1,435.4z"/>
			<linearGradient id="SVGID_6_" gradientUnits="userSpaceOnUse" x1="145.237" y1="354.9105" x2="354.7405" y2="354.9105">
				<stop  offset="0" style="stop-color:#1A5499"/>
				<stop  offset="1" style="stop-color:#9133D3"/>
			</linearGradient>
			<path class="st5" d="M248.9,288c-57.8,0.9-104.3,31.6-103.7,68.6c0.6,37,48,66.2,105.8,65.3s104.3-31.6,103.7-68.6
				C354.1,316.3,306.8,287.1,248.9,288z"/>
		</g>
		<g>
			<linearGradient id="SVGID_7_" gradientUnits="userSpaceOnUse" x1="163.7828" y1="376.3338" x2="336.2212" y2="376.3338">
				<stop  offset="0" style="stop-color:#13477C"/>
				<stop  offset="1" style="stop-color:#6C21AD"/>
			</linearGradient>
			<path class="st6" d="M250.9,410.7c47.6-0.8,85.8-26,85.3-56.5l0-12.2l-172.4,3.8l0,11.2C164.3,387.4,203.3,411.4,250.9,410.7z"/>
			<linearGradient id="SVGID_8_" gradientUnits="userSpaceOnUse" x1="163.7782" y1="344.4034" x2="336.2031" y2="344.4034">
				<stop  offset="0" style="stop-color:#2572BF"/>
				<stop  offset="1" style="stop-color:#9B42E8"/>
			</linearGradient>
			<path class="st7" d="M249.1,289.3c-47.6,0.8-85.8,26-85.3,56.5c0.5,30.4,39.5,54.5,87.1,53.7c47.6-0.8,85.8-26,85.3-56.5
				C335.7,312.6,296.7,288.6,249.1,289.3z"/>
		</g>
	</g>
	<g>
		<linearGradient id="SVGID_9_" gradientUnits="userSpaceOnUse" x1="249.4722" y1="378.6142" x2="249.4722" y2="80.0414">
			<stop  offset="0" style="stop-color:#A1BEBF"/>
			<stop  offset="0.2879" style="stop-color:#A4C0C1"/>
			<stop  offset="0.465" style="stop-color:#ACC7C9"/>
			<stop  offset="0.6122" style="stop-color:#BBD3D5"/>
			<stop  offset="0.7422" style="stop-color:#CFE3E7"/>
			<stop  offset="0.7784" style="stop-color:#D6E9ED"/>
			<stop  offset="1" style="stop-color:#A1BEBF"/>
		</linearGradient>
		<path class="st8" d="M291.6,125.4l-76.5-44.2c-2.9-1.7-6.2-1.5-8.7,0l0,0l-10.6,6.1l1.7,3l4.6-0.3v220.4c0,6.7,3.6,12.9,9.4,16.3
			l77.7,44.9l-0.8,0.4l-2.3,2.8l1.3,3.9l11.1-6.4l0,0c2.6-1.4,4.6-4.2,4.6-7.6V145.2C303.1,137,298.7,129.5,291.6,125.4z"/>
		<linearGradient id="SVGID_10_" gradientUnits="userSpaceOnUse" x1="191.5477" y1="124.4199" x2="292.4504" y2="124.4199">
			<stop  offset="0" style="stop-color:#CADEE0"/>
			<stop  offset="1" style="stop-color:#F8FEFF"/>
		</linearGradient>
		<path class="st9" d="M281,131.5l-76.5-44.2c-5.8-3.3-13,0.8-13,7.5v9.5l100.9,58.3v-11.3C292.5,143.2,288.1,135.6,281,131.5z"/>
		<linearGradient id="SVGID_11_" gradientUnits="userSpaceOnUse" x1="241.9991" y1="366.5355" x2="241.9991" y2="104.3826">
			<stop  offset="0" style="stop-color:#1A5499"/>
			<stop  offset="1" style="stop-color:#9133D3"/>
		</linearGradient>
		<polygon class="st10" points="292.5,162.6 191.5,104.4 191.5,308.3 292.5,366.5 		"/>
		<linearGradient id="SVGID_12_" gradientUnits="userSpaceOnUse" x1="191.5477" y1="343.8458" x2="292.4504" y2="343.8458">
			<stop  offset="0" style="stop-color:#CADEE0"/>
			<stop  offset="1" style="stop-color:#F8FEFF"/>
		</linearGradient>
		<path class="st11" d="M201,332.9l78.5,45.3c5.8,3.3,13-0.8,13-7.5v-4.2l-100.9-58.3v8.3C191.5,323.3,195.1,329.5,201,332.9z"/>
		<path class="st12" d="M238.4,118.7l12.1,7c1.3,0.7,2,2.1,2,3.5l0,0c0,0.9-1,1.4-1.7,1l-12.5-7.2c-1.2-0.7-1.9-1.9-1.9-3.2l0,0
			C236.5,118.8,237.6,118.2,238.4,118.7z"/>
	</g>
	<g>
		<g>
			<g>
				<linearGradient id="SVGID_13_" gradientUnits="userSpaceOnUse" x1="201.8694" y1="210.9777" x2="201.8694" y2="179.2005">
					<stop  offset="0" style="stop-color:#3EC9FF"/>
					<stop  offset="1" style="stop-color:#E257FF"/>
				</linearGradient>
				<polygon class="st13" points="199.6,181.8 199.6,211 204.2,208.3 204.2,179.2 				"/>
				<linearGradient id="SVGID_14_" gradientUnits="userSpaceOnUse" x1="199.5782" y1="231.4948" x2="279.8376" y2="231.4948">
					<stop  offset="0" style="stop-color:#3EC9FF"/>
					<stop  offset="1" style="stop-color:#E257FF"/>
				</linearGradient>
				<polygon class="st14" points="275.3,254.7 279.8,252 204.2,208.3 199.6,211 				"/>
				<linearGradient id="SVGID_15_" gradientUnits="userSpaceOnUse" x1="204.1606" y1="215.6106" x2="279.8376" y2="215.6106">
					<stop  offset="0" style="stop-color:#3EC9FF"/>
					<stop  offset="1" style="stop-color:#E257FF"/>
				</linearGradient>
				<polygon class="st15" points="204.2,179.2 204.2,208.3 279.8,252 279.8,222.9 				"/>
				<linearGradient id="SVGID_16_" gradientUnits="userSpaceOnUse" x1="199.5782" y1="218.2598" x2="275.2552" y2="218.2598">
					<stop  offset="0" style="stop-color:#3EC9FF"/>
					<stop  offset="1" style="stop-color:#E257FF"/>
				</linearGradient>
				<polygon class="st16" points="275.3,225.5 199.6,181.8 199.6,211 275.3,254.7 				"/>
				<linearGradient id="SVGID_17_" gradientUnits="userSpaceOnUse" x1="199.5782" y1="202.3712" x2="279.8376" y2="202.3712">
					<stop  offset="0" style="stop-color:#3EC9FF"/>
					<stop  offset="1" style="stop-color:#E257FF"/>
				</linearGradient>
				<polygon class="st17" points="275.3,225.5 279.8,222.9 204.2,179.2 199.6,181.8 				"/>
				<linearGradient id="SVGID_18_" gradientUnits="userSpaceOnUse" x1="277.5464" y1="254.6699" x2="277.5464" y2="222.8926">
					<stop  offset="0" style="stop-color:#3EC9FF"/>
					<stop  offset="1" style="stop-color:#E257FF"/>
				</linearGradient>
				<polygon class="st18" points="275.3,225.5 275.3,254.7 279.8,252 279.8,222.9 				"/>
			</g>
			<g>
				<linearGradient id="SVGID_19_" gradientUnits="userSpaceOnUse" x1="201.8694" y1="254.71" x2="201.8694" y2="222.9327">
					<stop  offset="0" style="stop-color:#3EC9FF"/>
					<stop  offset="1" style="stop-color:#E257FF"/>
				</linearGradient>
				<polygon class="st19" points="199.6,225.6 199.6,254.7 204.2,252.1 204.2,222.9 				"/>
				<linearGradient id="SVGID_20_" gradientUnits="userSpaceOnUse" x1="199.5782" y1="275.227" x2="279.8376" y2="275.227">
					<stop  offset="0" style="stop-color:#3EC9FF"/>
					<stop  offset="1" style="stop-color:#E257FF"/>
				</linearGradient>
				<polygon class="st20" points="275.3,298.4 279.8,295.8 204.2,252.1 199.6,254.7 				"/>
				<linearGradient id="SVGID_21_" gradientUnits="userSpaceOnUse" x1="204.1606" y1="259.3429" x2="279.8376" y2="259.3429">
					<stop  offset="0" style="stop-color:#3EC9FF"/>
					<stop  offset="1" style="stop-color:#E257FF"/>
				</linearGradient>
				<polygon class="st21" points="204.2,222.9 204.2,252.1 279.8,295.8 279.8,266.6 				"/>
				<linearGradient id="SVGID_22_" gradientUnits="userSpaceOnUse" x1="199.5782" y1="261.992" x2="275.2552" y2="261.992">
					<stop  offset="0" style="stop-color:#3EC9FF"/>
					<stop  offset="1" style="stop-color:#E257FF"/>
				</linearGradient>
				<polygon class="st22" points="275.3,269.3 199.6,225.6 199.6,254.7 275.3,298.4 				"/>
				<linearGradient id="SVGID_23_" gradientUnits="userSpaceOnUse" x1="199.5782" y1="246.1033" x2="279.8376" y2="246.1033">
					<stop  offset="0" style="stop-color:#3EC9FF"/>
					<stop  offset="1" style="stop-color:#E257FF"/>
				</linearGradient>
				<polygon class="st23" points="275.3,269.3 279.8,266.6 204.2,222.9 199.6,225.6 				"/>
				<linearGradient id="SVGID_24_" gradientUnits="userSpaceOnUse" x1="277.5464" y1="298.4021" x2="277.5464" y2="266.6249">
					<stop  offset="0" style="stop-color:#3EC9FF"/>
					<stop  offset="1" style="stop-color:#E257FF"/>
				</linearGradient>
				<polygon class="st24" points="275.3,269.3 275.3,298.4 279.8,295.8 279.8,266.6 				"/>
			</g>
			<g>
				<linearGradient id="SVGID_25_" gradientUnits="userSpaceOnUse" x1="214.4822" y1="305.6503" x2="214.4822" y2="273.873">
					<stop  offset="0" style="stop-color:#FFDA40"/>
					<stop  offset="1" style="stop-color:#FF5AB8"/>
				</linearGradient>
				<polygon class="st25" points="212.2,276.5 212.2,305.7 216.8,303 216.8,273.9 				"/>
				<linearGradient id="SVGID_26_" gradientUnits="userSpaceOnUse" x1="212.191" y1="318.8762" x2="267.2247" y2="318.8762">
					<stop  offset="0" style="stop-color:#FFDA40"/>
					<stop  offset="1" style="stop-color:#FF5AB8"/>
				</linearGradient>
				<polygon class="st26" points="262.6,334.8 267.2,332.1 216.8,303 212.2,305.7 				"/>
				<linearGradient id="SVGID_27_" gradientUnits="userSpaceOnUse" x1="216.7734" y1="302.9921" x2="267.2247" y2="302.9921">
					<stop  offset="0" style="stop-color:#FFDA40"/>
					<stop  offset="1" style="stop-color:#FF5AB8"/>
				</linearGradient>
				<polygon class="st27" points="216.8,273.9 216.8,303 267.2,332.1 267.2,303 				"/>
				<linearGradient id="SVGID_28_" gradientUnits="userSpaceOnUse" x1="212.191" y1="305.6412" x2="262.6424" y2="305.6412">
					<stop  offset="0" style="stop-color:#FFDA40"/>
					<stop  offset="1" style="stop-color:#FF5AB8"/>
				</linearGradient>
				<polygon class="st28" points="262.6,305.6 212.2,276.5 212.2,305.7 262.6,334.8 				"/>
				<linearGradient id="SVGID_29_" gradientUnits="userSpaceOnUse" x1="212.191" y1="289.7526" x2="267.2247" y2="289.7526">
					<stop  offset="0" style="stop-color:#FFDA40"/>
					<stop  offset="1" style="stop-color:#FF5AB8"/>
				</linearGradient>
				<polygon class="st29" points="262.6,305.6 267.2,303 216.8,273.9 212.2,276.5 				"/>
				<linearGradient id="SVGID_30_" gradientUnits="userSpaceOnUse" x1="264.9336" y1="334.7603" x2="264.9336" y2="302.9831">
					<stop  offset="0" style="stop-color:#FFDA40"/>
					<stop  offset="1" style="stop-color:#FF5AB8"/>
				</linearGradient>
				<polygon class="st30" points="262.6,305.6 262.6,334.8 267.2,332.1 267.2,303 				"/>
			</g>
		</g>
		<g>
			<g>
				
					<ellipse transform="matrix(0.9111 -0.4122 0.4122 0.9111 -46.4971 115.0225)" class="st31" cx="243.4" cy="165.3" rx="14.3" ry="22.4"/>
				
					<ellipse transform="matrix(0.9111 -0.4122 0.4122 0.9111 -49.2382 111.2253)" class="st32" cx="233.2" cy="169.8" rx="14.3" ry="22.4"/>
				<path class="st33" d="M256.4,159.4c-5.1-11.3-15.1-17.8-22.3-14.5l-10.2,4.5c7.2-3.3,17.2,3.2,22.3,14.5
					c5.1,11.3,3.4,23-3.8,26.3l10.2-4.5C259.8,182.4,261.5,170.7,256.4,159.4z"/>
			</g>
			<path class="st34" d="M235.7,171.2c1.7-0.2,2.9-1.8,2.9-4.3c0-3.9-2.7-8.5-6.1-10.5c-3.4-1.9-6.1-0.4-6.1,3.5
				c0,2.5,1.2,5.4,2.9,7.6c-3.3-1.8-6-0.2-6,3.6v4l18.3,10.5v-4C241.7,177.9,239,173.2,235.7,171.2z"/>
		</g>
		<g>
			<path class="st34" d="M216.5,201.3l1.1,0.7l5.8,13.7l0,0v-10.3l0.9,0.5v11.8l-1.1-0.7l-5.8-13.7l0,0v10.3l-0.9-0.5V201.3z"/>
			<path class="st34" d="M231.3,209.9l0.9,0.5l4,14.1l-1-0.6l-1-3.7l-5.1-2.9l-1.1,2.5l-0.9-0.5L231.3,209.9z M231.7,211.3l-2.2,5.2
				l4.4,2.5L231.7,211.3z"/>
			<path class="st34" d="M238.8,214.3l1.3,0.8l3.5,11.9l3.5-7.9l1.3,0.7v11.8l-0.9-0.5v-10.4l0,0l-3.6,8.3l-0.4-0.2l-3.7-12.5l0,0
				v10.4l-0.9-0.5V214.3z"/>
			<path class="st34" d="M252.3,222.1l5.8,3.4v1l-5-2.9v4.2l4.6,2.7v1l-4.6-2.7v4.6l5.2,3v1l-6.1-3.5V222.1z"/>
		</g>
		<g>
			<path class="st34" d="M211,246.8c0,1.4-0.8,2.1-1.7,1.6c-1-0.5-1.7-2.1-1.7-3.5c0-1.4,0.8-2.1,1.7-1.6
				C210.3,243.8,211,245.4,211,246.8z"/>
			<path class="st34" d="M218.1,250.8c0,1.4-0.8,2.1-1.7,1.6c-1-0.5-1.7-2.1-1.7-3.5c0-1.4,0.8-2.1,1.7-1.6
				C217.3,247.8,218.1,249.4,218.1,250.8z"/>
			<path class="st34" d="M225.1,254.9c0,1.4-0.8,2.1-1.7,1.6c-1-0.5-1.7-2.1-1.7-3.5c0-1.4,0.8-2.1,1.7-1.6
				C224.3,251.9,225.1,253.5,225.1,254.9z"/>
			<path class="st34" d="M232.1,258.9c0,1.4-0.8,2.1-1.7,1.6s-1.7-2.1-1.7-3.5c0-1.4,0.8-2.1,1.7-1.6
				C231.3,255.9,232.1,257.5,232.1,258.9z"/>
			<path class="st34" d="M239.1,263c0,1.4-0.8,2.1-1.7,1.6c-1-0.5-1.7-2.1-1.7-3.5c0-1.4,0.8-2.1,1.7-1.6
				C238.4,260,239.1,261.6,239.1,263z"/>
			<path class="st34" d="M246.2,267c0,1.4-0.8,2.1-1.7,1.6c-1-0.5-1.7-2.1-1.7-3.5s0.8-2.1,1.7-1.6C245.4,264,246.2,265.6,246.2,267
				z"/>
			<path class="st34" d="M253.2,271c0,1.4-0.8,2.1-1.7,1.6c-1-0.5-1.7-2.1-1.7-3.5s0.8-2.1,1.7-1.6C252.4,268,253.2,269.6,253.2,271
				z"/>
			<path class="st34" d="M260.2,275.1c0,1.4-0.8,2.1-1.7,1.6c-1-0.5-1.7-2.1-1.7-3.5s0.8-2.1,1.7-1.6S260.2,273.7,260.2,275.1z"/>
			<path class="st34" d="M267.3,279.1c0,1.4-0.8,2.1-1.7,1.6c-1-0.5-1.7-2.1-1.7-3.5s0.8-2.1,1.7-1.6S267.3,277.7,267.3,279.1z"/>
		</g>
		<g>
			<path class="st34" d="M216.8,290.5l2.2,1.3c1.6,0.9,2,2.5,2,3.5c0,1.1-0.6,1.8-1.5,1.4l1.8,4.9l-1.1-0.6l-1.6-4.7l-0.9-0.5v3.7
				l-0.8-0.5V290.5z M217.6,294.7l1.1,0.6c0.7,0.4,1.3,0.6,1.3-0.6c0-1.2-0.7-1.8-1.3-2.1l-1.1-0.6V294.7z"/>
			<path class="st34" d="M222.6,293.9l4,2.3v1.1l-3.2-1.8v2.5l2.9,1.7v1.1l-2.9-1.7v2.7l3.3,1.9v1.1l-4.2-2.4V293.9z"/>
			<path class="st34" d="M233.7,304v4.2c-0.6,0.2-1.6-0.1-2.3-0.6c-2.1-1.2-3.3-4-3.3-6.4c0-2.5,1.3-3.7,3.2-2.6
				c1.1,0.7,1.8,1.5,2.3,2.4l-0.6,0.5c-0.5-1-1.1-1.5-1.7-1.9c-1.4-0.8-2.3,0.2-2.3,2c0,1.9,1,4,2.4,4.8c0.6,0.3,1.1,0.5,1.5,0.4
				v-2.4l-1.4-0.8v-1.1L233.7,304z"/>
			<path class="st34" d="M235.6,301.4l0.8,0.5v8.5l-0.8-0.5V301.4z"/>
			<path class="st34" d="M238.7,309.9c0.3,0.8,0.8,1.4,1.3,1.7c0.6,0.3,1.2,0.2,1.2-0.7c0-2-3.1-2.5-3.1-5.8c0-1,0.6-2,2.1-1.2
				c0.7,0.4,1.3,1,1.8,2l-0.7,0.5c-0.2-0.6-0.6-1.1-1.1-1.4c-0.9-0.5-1.2,0.1-1.2,0.6c0,2.1,3.1,2.6,3.1,5.7c0,1.6-1,2.1-2.2,1.4
				c-0.8-0.5-1.6-1.3-2-2.3L238.7,309.9z"/>
			<path class="st34" d="M245.1,308l-2-1.2v-1.1l4.8,2.8v1.1l-2-1.2v7.4l-0.8-0.5V308z"/>
			<path class="st34" d="M249.3,309.3l4,2.3v1.1l-3.2-1.8v2.5l2.9,1.7v1.1l-2.9-1.7v2.7l3.3,1.9v1.1l-4.2-2.4V309.3z"/>
			<path class="st34" d="M255.1,312.6l2.2,1.3c1.6,0.9,2,2.5,2,3.5c0,1.1-0.6,1.8-1.5,1.4l1.8,4.9l-1.1-0.6l-1.6-4.7l-0.9-0.5v3.7
				l-0.8-0.5V312.6z M255.9,316.9l1.1,0.6c0.7,0.4,1.3,0.6,1.3-0.6c0-1.2-0.7-1.8-1.3-2.1l-1.1-0.6V316.9z"/>
		</g>
	</g>
	<g>
		<linearGradient id="SVGID_31_" gradientUnits="userSpaceOnUse" x1="249.9929" y1="396.9626" x2="249.9929" y2="65.1794">
			<stop  offset="0" style="stop-color:#9B42E8"/>
			<stop  offset="7.911724e-02" style="stop-color:#9B42E8;stop-opacity:0.9209"/>
			<stop  offset="1" style="stop-color:#9B42E8;stop-opacity:0"/>
		</linearGradient>
		<path class="st35" d="M167.8,345.7c0.5,29,37.7,52,83.1,51.2c45.4-0.7,81.9-24.8,81.4-53.9V65.2H167.8V345.7z"/>
		<linearGradient id="SVGID_32_" gradientUnits="userSpaceOnUse" x1="250.0097" y1="391.8736" x2="250.0097" y2="253.9592">
			<stop  offset="0" style="stop-color:#9B42E8"/>
			<stop  offset="0.14" style="stop-color:#9B42E8;stop-opacity:0.86"/>
			<stop  offset="1" style="stop-color:#9B42E8;stop-opacity:0"/>
		</linearGradient>
		<path class="st36" d="M171.2,342.8c0.4,27.8,36.1,49.8,79.6,49.1c43.5-0.7,78.4-23.8,78-51.6V254H171.2V342.8z"/>
		<linearGradient id="SVGID_33_" gradientUnits="userSpaceOnUse" x1="249.8953" y1="417.5426" x2="249.8953" y2="44.5631">
			<stop  offset="0" style="stop-color:#9B42E8"/>
			<stop  offset="8.760130e-02" style="stop-color:#9B42E8;stop-opacity:0.854"/>
			<stop  offset="0.6" style="stop-color:#9B42E8;stop-opacity:0"/>
		</linearGradient>
		<path class="st37" d="M147.5,353.7c0.6,36.1,46.9,64.7,103.4,63.8c56.5-0.9,101.9-30.9,101.3-67.1V44.6H147.5V353.7z"/>
	</g>
	<g>
		<g>
			<linearGradient id="SVGID_34_" gradientUnits="userSpaceOnUse" x1="143.6707" y1="302.0677" x2="356.2894" y2="302.0677">
				<stop  offset="0" style="stop-color:#39A6FF"/>
				<stop  offset="1" style="stop-color:#F648FF"/>
			</linearGradient>
			<path class="st38" d="M147.2,294c0.1,3.3,0.5,6.6,1.3,9.8c0.8,3.2,2,6.3,3.5,9.3c1.5,3,3.3,5.8,5.4,8.5c0.5,0.7,1.1,1.3,1.6,2
				l0.8,1l0.9,0.9l1.7,1.9l1.8,1.8c9.8,9.3,22,16,34.9,20.6c12.9,4.6,26.5,7.2,40.1,8c13.7,0.8,27.5,0,41-2.6
				c13.4-2.7,26.6-7.1,38.6-13.8c6-3.4,11.6-7.3,16.7-11.9c2.6-2.3,4.9-4.8,7.1-7.4c2.2-2.6,4.1-5.5,5.8-8.5c1.6-3,3-6.2,4.1-9.4
				c1-3.3,1.6-6.7,1.9-10.1c0.2-3.4,0-6.9-0.5-10.2c-0.6-3.4-1.6-6.7-2.9-9.9c-1.3-3.2-3-6.2-4.9-9c-2-2.8-4.1-5.5-6.5-8
				c-4.8-5-10.3-9.2-16.1-12.9c5.9,3.6,11.4,7.8,16.2,12.8c2.4,2.5,4.6,5.2,6.6,8c1.9,2.9,3.7,5.9,5.1,9.1c1.3,3.2,2.4,6.5,3,9.9
				c0.6,3.4,0.8,6.9,0.7,10.4c-0.2,3.5-0.8,6.9-1.8,10.3c-1,3.3-2.4,6.5-4,9.6c-1.7,3-3.6,5.9-5.8,8.7c-2.2,2.7-4.5,5.3-7.1,7.6
				c-5.1,4.8-10.8,8.8-16.8,12.3c-12,7-25.3,11.6-38.9,14.4c-13.6,2.8-27.6,3.8-41.4,3.1c-13.9-0.7-27.7-3.2-40.9-7.8
				c-6.6-2.3-13-5.1-19.1-8.5c-1.5-0.9-3-1.7-4.5-2.7c-0.7-0.5-1.5-0.9-2.2-1.4l-2.2-1.5c-1.5-1-2.8-2.1-4.2-3.2l-2-1.7
				c-0.7-0.6-1.3-1.1-2-1.8l-1.9-1.8l-1.8-1.9l-0.9-1l-0.9-1c-0.6-0.7-1.1-1.3-1.7-2c-2.2-2.8-4.1-5.8-5.8-8.9
				c-1.6-3.2-2.9-6.5-3.9-10c-0.9-3.5-1.4-7-1.5-10.6c0-1,0.7-1.8,1.7-1.8C146.3,292.2,147.2,293,147.2,294L147.2,294L147.2,294z"/>
		</g>
		<g>
			<linearGradient id="SVGID_35_" gradientUnits="userSpaceOnUse" x1="249.2598" y1="225.4363" x2="356.2612" y2="225.4363">
				<stop  offset="0" style="stop-color:#39A6FF"/>
				<stop  offset="1" style="stop-color:#F648FF"/>
			</linearGradient>
			<path class="st39" d="M251,257c11.2-0.1,22.5-1.3,33.5-3.6c5.5-1.3,10.9-2.7,16.2-4.6c2.7-0.9,5.3-2,7.9-3.1
				c1.3-0.6,2.6-1.2,3.8-1.8l1.9-0.9l1.9-1c5-2.6,9.8-5.6,14.3-9l1.7-1.3c0.6-0.4,1.1-0.9,1.6-1.3l3.2-2.8l3-3c0.5-0.5,1-1,1.4-1.6
				c0.5-0.5,0.9-1.1,1.4-1.6c3.6-4.3,6.6-9.2,8.7-14.5c2.1-5.2,3.2-10.9,3.2-16.6c0.2,5.7-0.8,11.4-2.8,16.7
				c-2,5.4-4.9,10.4-8.4,14.9c-0.4,0.6-0.9,1.1-1.3,1.7c-0.5,0.5-0.9,1.1-1.4,1.6l-2.9,3.1l-3.1,2.9c-0.5,0.5-1.1,1-1.6,1.4
				l-1.7,1.4c-4.5,3.6-9.2,6.8-14.2,9.5l-1.9,1.1l-1.9,1c-1.3,0.6-2.6,1.3-3.9,1.9c-2.6,1.1-5.2,2.4-7.9,3.3
				c-5.3,2.1-10.8,3.7-16.4,5.2c-11.1,2.7-22.6,4.2-34,4.6c-1,0-1.8-0.7-1.8-1.7C249.2,257.9,250,257.1,251,257
				C251,257,251,257,251,257L251,257z"/>
		</g>
		<g>
			<linearGradient id="SVGID_36_" gradientUnits="userSpaceOnUse" x1="191.3581" y1="239.7097" x2="143.7052" y2="239.7097">
				<stop  offset="0" style="stop-color:#39A6FF"/>
				<stop  offset="1" style="stop-color:#F648FF"/>
			</linearGradient>
			<path class="st40" d="M188.8,291.6c-5.1-2.5-10-5.3-14.7-8.5c-4.7-3.2-9.1-6.9-13-10.9c-4-4.1-7.5-8.6-10.2-13.6
				c-2.8-5-4.8-10.4-5.6-16c-1.9-11.3,1-23,7.2-32.4c6.1-9.5,14.9-16.9,24.4-22.6c-9.4,6-17.9,13.6-23.6,23.1
				c-5.8,9.4-8.3,20.8-6.2,31.6c1,5.4,3,10.5,5.8,15.2c2.8,4.7,6.3,9,10.2,12.8c3.9,3.8,8.2,7.2,12.9,10.2c4.6,3,9.5,5.6,14.5,7.8
				l0,0c0.9,0.4,1.3,1.4,0.9,2.3C190.8,291.6,189.8,292,188.8,291.6C188.9,291.6,188.8,291.6,188.8,291.6z"/>
		</g>
	</g>
</g>
</svg>
